<?xml version="1.0"?>
<!DOCTYPE svg PUBLIC "-//W3C//DTD SVG 1.1//EN" "http://www.w3.org/Graphics/SVG/1.1/DTD/svg11.dtd">
<svg width="216.2655mm" height="111.4905mm" viewBox="0 0 216.2655 111.4905" xmlns="http://www.w3.org/2000/svg" version="1.1">
<g id="Shape" transform="translate(108.132750,55.745250) scale(1,-1)">
<path id="Shape_f0000" d="M -106.0125 53.625 L -106.0125 -53.625 L -106.0125 -53.625 L -106.0125 53.625 L -106.0125 53.625 Z " stroke="#000000" stroke-width="0.35 px" style="stroke-width:0.35;stroke-miterlimit:4;stroke-dasharray:none;fill:#888888;fill-rule: evenodd "/>
<path id="Shape_f0001" d="M -106.0125 -53.625 L -106.0125 -53.625 L 106.0125 -53.625 L 106.0125 -53.625 L -106.0125 -53.625 Z " stroke="#000000" stroke-width="0.35 px" style="stroke-width:0.35;stroke-miterlimit:4;stroke-dasharray:none;fill:#888888;fill-rule: evenodd "/>
<circle cx="-103.0125" cy="50.625" r="1.5" stroke="#000000" stroke-width="0.35 px" style="stroke-width:0.35;stroke-miterlimit:4;stroke-dasharray:none;fill:#888888"/>
<path id="Shape_f0003" d="M -106.0125 53.625 L -5.0 53.625 L -5.0 53.625 L -106.0125 53.625 L -106.0125 53.625 Z " stroke="#000000" stroke-width="0.35 px" style="stroke-width:0.35;stroke-miterlimit:4;stroke-dasharray:none;fill:#888888;fill-rule: evenodd "/>
<circle cx="103.0125" cy="50.625" r="1.5" stroke="#000000" stroke-width="0.35 px" style="stroke-width:0.35;stroke-miterlimit:4;stroke-dasharray:none;fill:#888888"/>
<path id="Shape_f0005" d="M 106.0125 -53.625 L 106.0125 -53.625 L 106.0125 53.625 L 106.0125 53.625 L 106.0125 -53.625 Z " stroke="#000000" stroke-width="0.35 px" style="stroke-width:0.35;stroke-miterlimit:4;stroke-dasharray:none;fill:#888888;fill-rule: evenodd "/>
<path id="Shape_f0006" d="M -5.0 47.625 L -5.0 47.625 L -5.0 53.625 L -5.0 53.625 L -5.0 47.625 Z " stroke="#000000" stroke-width="0.35 px" style="stroke-width:0.35;stroke-miterlimit:4;stroke-dasharray:none;fill:#888888;fill-rule: evenodd "/>
<path id="Shape_f0007" d="M -100.0125 47.625 L -100.0125 47.625 L -5.0 47.625 L -5.0 47.625 L -100.0125 47.625 Z " stroke="#000000" stroke-width="0.35 px" style="stroke-width:0.35;stroke-miterlimit:4;stroke-dasharray:none;fill:#888888;fill-rule: evenodd "/>
<path id="Shape_f0008" d="M -100.0125 -47.625 L -100.0125 -47.625 L -100.0125 47.625 L -100.0125 47.625 L -100.0125 -47.625 Z " stroke="#000000" stroke-width="0.35 px" style="stroke-width:0.35;stroke-miterlimit:4;stroke-dasharray:none;fill:#888888;fill-rule: evenodd "/>
<path id="Shape_f0009" d="M 100.0125 -47.625 L 100.0125 -47.625 L -100.0125 -47.625 L -100.0125 -47.625 L 100.0125 -47.625 Z " stroke="#000000" stroke-width="0.35 px" style="stroke-width:0.35;stroke-miterlimit:4;stroke-dasharray:none;fill:#888888;fill-rule: evenodd "/>
<path id="Shape_f0010" d="M 100.0125 47.625 L 100.0125 47.625 L 100.0125 -47.625 L 100.0125 -47.625 L 100.0125 47.625 Z " stroke="#000000" stroke-width="0.35 px" style="stroke-width:0.35;stroke-miterlimit:4;stroke-dasharray:none;fill:#888888;fill-rule: evenodd "/>
<path id="Shape_f0011" d="M 5.0 47.625 L 5.0 47.625 L 100.0125 47.625 L 100.0125 47.625 L 5.0 47.625 Z " stroke="#000000" stroke-width="0.35 px" style="stroke-width:0.35;stroke-miterlimit:4;stroke-dasharray:none;fill:#888888;fill-rule: evenodd "/>
<path id="Shape_f0012" d="M 5.0 53.625 L 5.0 53.625 L 5.0 47.625 L 5.0 47.625 L 5.0 53.625 Z " stroke="#000000" stroke-width="0.35 px" style="stroke-width:0.35;stroke-miterlimit:4;stroke-dasharray:none;fill:#888888;fill-rule: evenodd "/>
<path id="Shape_f0013" d="M 5.0 53.625 L 106.0125 53.625 L 106.0125 53.625 L 5.0 53.625 L 5.0 53.625 Z " stroke="#000000" stroke-width="0.35 px" style="stroke-width:0.35;stroke-miterlimit:4;stroke-dasharray:none;fill:#888888;fill-rule: evenodd "/>
<circle cx="-103.0125" cy="50.625" r="1.5" stroke="#000000" stroke-width="0.35 px" style="stroke-width:0.35;stroke-miterlimit:4;stroke-dasharray:none;fill:#888888"/>
<circle cx="34.3375" cy="50.625" r="1.5" stroke="#000000" stroke-width="0.35 px" style="stroke-width:0.35;stroke-miterlimit:4;stroke-dasharray:none;fill:#888888"/>
<circle cx="103.0125" cy="50.625" r="1.5" stroke="#000000" stroke-width="0.35 px" style="stroke-width:0.35;stroke-miterlimit:4;stroke-dasharray:none;fill:#888888"/>
<circle cx="-34.3375" cy="50.625" r="1.5" stroke="#000000" stroke-width="0.35 px" style="stroke-width:0.35;stroke-miterlimit:4;stroke-dasharray:none;fill:#888888"/>
<circle cx="-34.3375" cy="-50.625" r="1.5" stroke="#000000" stroke-width="0.35 px" style="stroke-width:0.35;stroke-miterlimit:4;stroke-dasharray:none;fill:#888888"/>
<circle cx="103.0125" cy="-50.625" r="1.5" stroke="#000000" stroke-width="0.35 px" style="stroke-width:0.35;stroke-miterlimit:4;stroke-dasharray:none;fill:#888888"/>
<circle cx="-103.0125" cy="-50.625" r="1.5" stroke="#000000" stroke-width="0.35 px" style="stroke-width:0.35;stroke-miterlimit:4;stroke-dasharray:none;fill:#888888"/>
<circle cx="34.3375" cy="-50.625" r="1.5" stroke="#000000" stroke-width="0.35 px" style="stroke-width:0.35;stroke-miterlimit:4;stroke-dasharray:none;fill:#888888"/>
<title>Shape</title>
</g>
</svg>