  0
SECTION
  2
HEADER
  9
$ACADVER
  1
AC1009
  9
$INSBASE
 10
0.0
 20
0.0
 30
0.0
  9
$EXTMIN
 10
0.0
 20
0.0
 30
0.0
  9
$EXTMAX
 10
0.0
 20
0.0
 30
0.0
  0
ENDSEC
  0
SECTION
  2
TABLES
  0
TABLE
  2
VPORT
 70
0
  0
ENDTAB
  0
TABLE
  2
LTYPE
 70
1
  0
LTYPE
  2
CONTINUOUS
 70
0
  3
Solid line
 72
65
 73
0
 40
0.0
  0
ENDTAB
  0
TABLE
  2
LAYER
 70
1
  0
LAYER
  2
0
 70
64
 62
7
  6
continuous
  0
ENDTAB
  0
TABLE
  2
STYLE
 70
1
  0
STYLE
  2
STANDARD
 70
0
 40
0
 41
1.0
 50
0.0
 71
0
 42
1
 3
ARIAL.TTF
 4

  0
ENDTAB
  0
TABLE
  2
VIEW
 70
0
  0
ENDTAB
  0
ENDSEC
  0
SECTION
  2
BLOCKS
  0
BLOCK
  8
0
  2
SHAPE
 70
0
 10
0.0
 20
0.0
 30
0.0
  3
SHAPE
  0
LINE
  8
0
 62
0
 10
-106.0125
 20
-53.625
 30
0.0
 11
-106.0125
 21
53.625
 31
0.0
  0
LINE
  8
0
 62
0
 10
-106.0125
 20
-53.625
 30
0.0
 11
106.0125
 21
-53.625
 31
0.0
  0
LINE
  8
0
 62
0
 10
-106.0125
 20
53.625
 30
0.0
 11
106.0125
 21
53.625
 31
0.0
  0
LINE
  8
0
 62
0
 10
106.0125
 20
-53.625
 30
0.0
 11
106.0125
 21
53.625
 31
0.0
  0
LINE
  8
0
 62
0
 10
62.56875
 20
31.7
 30
0.0
 11
62.56875
 21
44.5
 31
0.0
  0
LINE
  8
0
 62
0
 10
61.76875
 20
31.7
 30
0.0
 11
62.56875
 21
31.7
 31
0.0
  0
LINE
  8
0
 62
0
 10
62.56875
 20
44.5
 30
0.0
 11
61.76875
 21
44.5
 31
0.0
  0
LINE
  8
0
 62
0
 10
61.76875
 20
31.1
 30
0.0
 11
61.76875
 21
31.7
 31
0.0
  0
LINE
  8
0
 62
0
 10
61.76875
 20
44.5
 30
0.0
 11
61.76875
 21
45.1
 31
0.0
  0
LINE
  8
0
 62
0
 10
47.76875
 20
31.1
 30
0.0
 11
61.76875
 21
31.1
 31
0.0
  0
LINE
  8
0
 62
0
 10
61.76875
 20
45.1
 30
0.0
 11
47.76875
 21
45.1
 31
0.0
  0
LINE
  8
0
 62
0
 10
47.76875
 20
31.7
 30
0.0
 11
47.76875
 21
31.1
 31
0.0
  0
LINE
  8
0
 62
0
 10
47.76875
 20
45.1
 30
0.0
 11
47.76875
 21
44.5
 31
0.0
  0
LINE
  8
0
 62
0
 10
46.96875
 20
31.7
 30
0.0
 11
47.76875
 21
31.7
 31
0.0
  0
LINE
  8
0
 62
0
 10
47.76875
 20
44.5
 30
0.0
 11
46.96875
 21
44.5
 31
0.0
  0
LINE
  8
0
 62
0
 10
46.96875
 20
44.5
 30
0.0
 11
46.96875
 21
31.7
 31
0.0
  0
LINE
  8
0
 62
0
 10
1.725
 20
31.7
 30
0.0
 11
2.525
 21
31.7
 31
0.0
  0
LINE
  8
0
 62
0
 10
1.725
 20
44.5
 30
0.0
 11
1.725
 21
31.7
 31
0.0
  0
LINE
  8
0
 62
0
 10
2.525
 20
31.7
 30
0.0
 11
2.525
 21
31.1
 31
0.0
  0
LINE
  8
0
 62
0
 10
2.525
 20
44.5
 30
0.0
 11
1.725
 21
44.5
 31
0.0
  0
LINE
  8
0
 62
0
 10
2.525
 20
31.1
 30
0.0
 11
16.525
 21
31.1
 31
0.0
  0
LINE
  8
0
 62
0
 10
2.525
 20
45.1
 30
0.0
 11
2.525
 21
44.5
 31
0.0
  0
LINE
  8
0
 62
0
 10
16.525
 20
31.1
 30
0.0
 11
16.525
 21
31.7
 31
0.0
  0
LINE
  8
0
 62
0
 10
16.525
 20
45.1
 30
0.0
 11
2.525
 21
45.1
 31
0.0
  0
LINE
  8
0
 62
0
 10
16.525
 20
31.7
 30
0.0
 11
17.325
 21
31.7
 31
0.0
  0
LINE
  8
0
 62
0
 10
16.525
 20
44.5
 30
0.0
 11
16.525
 21
45.1
 31
0.0
  0
LINE
  8
0
 62
0
 10
17.325
 20
31.7
 30
0.0
 11
17.325
 21
44.5
 31
0.0
  0
LINE
  8
0
 62
0
 10
17.325
 20
44.5
 30
0.0
 11
16.525
 21
44.5
 31
0.0
  0
LINE
  8
0
 62
0
 10
9.38125
 20
-31.7
 30
0.0
 11
9.38125
 21
-31.1
 31
0.0
  0
LINE
  8
0
 62
0
 10
10.18125
 20
-31.7
 30
0.0
 11
9.38125
 21
-31.7
 31
0.0
  0
LINE
  8
0
 62
0
 10
9.38125
 20
-31.1
 30
0.0
 11
-4.61875
 21
-31.1
 31
0.0
  0
LINE
  8
0
 62
0
 10
10.18125
 20
-44.5
 30
0.0
 11
10.18125
 21
-31.7
 31
0.0
  0
LINE
  8
0
 62
0
 10
-4.61875
 20
-31.1
 30
0.0
 11
-4.61875
 21
-31.7
 31
0.0
  0
LINE
  8
0
 62
0
 10
9.38125
 20
-44.5
 30
0.0
 11
10.18125
 21
-44.5
 31
0.0
  0
LINE
  8
0
 62
0
 10
-4.61875
 20
-31.7
 30
0.0
 11
-5.41875
 21
-31.7
 31
0.0
  0
LINE
  8
0
 62
0
 10
9.38125
 20
-45.1
 30
0.0
 11
9.38125
 21
-44.5
 31
0.0
  0
LINE
  8
0
 62
0
 10
-5.41875
 20
-31.7
 30
0.0
 11
-5.41875
 21
-44.5
 31
0.0
  0
LINE
  8
0
 62
0
 10
-4.61875
 20
-45.1
 30
0.0
 11
9.38125
 21
-45.1
 31
0.0
  0
LINE
  8
0
 62
0
 10
-5.41875
 20
-44.5
 30
0.0
 11
-4.61875
 21
-44.5
 31
0.0
  0
LINE
  8
0
 62
0
 10
-4.61875
 20
-44.5
 30
0.0
 11
-4.61875
 21
-45.1
 31
0.0
  0
LINE
  8
0
 62
0
 10
26.3375
 20
-12.05
 30
0.0
 11
26.3375
 21
-12.65
 31
0.0
  0
LINE
  8
0
 62
0
 10
40.3375
 20
-12.05
 30
0.0
 11
26.3375
 21
-12.05
 31
0.0
  0
LINE
  8
0
 62
0
 10
26.3375
 20
-12.65
 30
0.0
 11
25.5375
 21
-12.65
 31
0.0
  0
LINE
  8
0
 62
0
 10
40.3375
 20
-12.65
 30
0.0
 11
40.3375
 21
-12.05
 31
0.0
  0
LINE
  8
0
 62
0
 10
25.5375
 20
-12.65
 30
0.0
 11
25.5375
 21
-25.45
 31
0.0
  0
LINE
  8
0
 62
0
 10
41.1375
 20
-12.65
 30
0.0
 11
40.3375
 21
-12.65
 31
0.0
  0
LINE
  8
0
 62
0
 10
25.5375
 20
-25.45
 30
0.0
 11
26.3375
 21
-25.45
 31
0.0
  0
LINE
  8
0
 62
0
 10
41.1375
 20
-25.45
 30
0.0
 11
41.1375
 21
-12.65
 31
0.0
  0
LINE
  8
0
 62
0
 10
26.3375
 20
-25.45
 30
0.0
 11
26.3375
 21
-26.05
 31
0.0
  0
LINE
  8
0
 62
0
 10
40.3375
 20
-25.45
 30
0.0
 11
41.1375
 21
-25.45
 31
0.0
  0
LINE
  8
0
 62
0
 10
26.3375
 20
-26.05
 30
0.0
 11
40.3375
 21
-26.05
 31
0.0
  0
LINE
  8
0
 62
0
 10
40.3375
 20
-26.05
 30
0.0
 11
40.3375
 21
-25.45
 31
0.0
  0
LINE
  8
0
 62
0
 10
36.375
 20
-31.7
 30
0.0
 11
35.575
 21
-31.7
 31
0.0
  0
LINE
  8
0
 62
0
 10
36.375
 20
-44.5
 30
0.0
 11
36.375
 21
-31.7
 31
0.0
  0
LINE
  8
0
 62
0
 10
35.575
 20
-31.7
 30
0.0
 11
35.575
 21
-31.1
 31
0.0
  0
LINE
  8
0
 62
0
 10
35.575
 20
-44.5
 30
0.0
 11
36.375
 21
-44.5
 31
0.0
  0
LINE
  8
0
 62
0
 10
35.575
 20
-31.1
 30
0.0
 11
21.575
 21
-31.1
 31
0.0
  0
LINE
  8
0
 62
0
 10
35.575
 20
-45.1
 30
0.0
 11
35.575
 21
-44.5
 31
0.0
  0
LINE
  8
0
 62
0
 10
21.575
 20
-31.1
 30
0.0
 11
21.575
 21
-31.7
 31
0.0
  0
LINE
  8
0
 62
0
 10
21.575
 20
-45.1
 30
0.0
 11
35.575
 21
-45.1
 31
0.0
  0
LINE
  8
0
 62
0
 10
21.575
 20
-31.7
 30
0.0
 11
20.775
 21
-31.7
 31
0.0
  0
LINE
  8
0
 62
0
 10
21.575
 20
-44.5
 30
0.0
 11
21.575
 21
-45.1
 31
0.0
  0
LINE
  8
0
 62
0
 10
20.775
 20
-31.7
 30
0.0
 11
20.775
 21
-44.5
 31
0.0
  0
LINE
  8
0
 62
0
 10
20.775
 20
-44.5
 30
0.0
 11
21.575
 21
-44.5
 31
0.0
  0
CIRCLE
  8
0
 62
0
 10
-34.3375
 20
-50.625
 30
0.0
 40
1.5
  0
LINE
  8
0
 62
0
 10
49.8625
 20
7.0
 30
0.0
 11
35.8625
 21
7.0
 31
0.0
  0
LINE
  8
0
 62
0
 10
49.8625
 20
6.4
 30
0.0
 11
49.8625
 21
7.0
 31
0.0
  0
LINE
  8
0
 62
0
 10
35.8625
 20
7.0
 30
0.0
 11
35.8625
 21
6.4
 31
0.0
  0
LINE
  8
0
 62
0
 10
50.6625
 20
6.4
 30
0.0
 11
49.8625
 21
6.4
 31
0.0
  0
LINE
  8
0
 62
0
 10
35.8625
 20
6.4
 30
0.0
 11
35.0625
 21
6.4
 31
0.0
  0
LINE
  8
0
 62
0
 10
50.6625
 20
-6.4
 30
0.0
 11
50.6625
 21
6.4
 31
0.0
  0
LINE
  8
0
 62
0
 10
35.0625
 20
6.4
 30
0.0
 11
35.0625
 21
-6.4
 31
0.0
  0
LINE
  8
0
 62
0
 10
49.8625
 20
-6.4
 30
0.0
 11
50.6625
 21
-6.4
 31
0.0
  0
LINE
  8
0
 62
0
 10
35.0625
 20
-6.4
 30
0.0
 11
35.8625
 21
-6.4
 31
0.0
  0
LINE
  8
0
 62
0
 10
49.8625
 20
-7.0
 30
0.0
 11
49.8625
 21
-6.4
 31
0.0
  0
LINE
  8
0
 62
0
 10
35.8625
 20
-6.4
 30
0.0
 11
35.8625
 21
-7.0
 31
0.0
  0
LINE
  8
0
 62
0
 10
35.8625
 20
-7.0
 30
0.0
 11
49.8625
 21
-7.0
 31
0.0
  0
CIRCLE
  8
0
 62
0
 10
103.0125
 20
-50.625
 30
0.0
 40
1.5
  0
LINE
  8
0
 62
0
 10
31.1
 20
12.05
 30
0.0
 11
45.1
 21
12.05
 31
0.0
  0
LINE
  8
0
 62
0
 10
31.1
 20
12.65
 30
0.0
 11
31.1
 21
12.05
 31
0.0
  0
LINE
  8
0
 62
0
 10
45.1
 20
12.05
 30
0.0
 11
45.1
 21
12.65
 31
0.0
  0
LINE
  8
0
 62
0
 10
30.3
 20
12.65
 30
0.0
 11
31.1
 21
12.65
 31
0.0
  0
LINE
  8
0
 62
0
 10
45.1
 20
12.65
 30
0.0
 11
45.9
 21
12.65
 31
0.0
  0
LINE
  8
0
 62
0
 10
30.3
 20
25.45
 30
0.0
 11
30.3
 21
12.65
 31
0.0
  0
LINE
  8
0
 62
0
 10
45.9
 20
12.65
 30
0.0
 11
45.9
 21
25.45
 31
0.0
  0
LINE
  8
0
 62
0
 10
31.1
 20
25.45
 30
0.0
 11
30.3
 21
25.45
 31
0.0
  0
LINE
  8
0
 62
0
 10
45.9
 20
25.45
 30
0.0
 11
45.1
 21
25.45
 31
0.0
  0
LINE
  8
0
 62
0
 10
31.1
 20
26.05
 30
0.0
 11
31.1
 21
25.45
 31
0.0
  0
LINE
  8
0
 62
0
 10
45.1
 20
25.45
 30
0.0
 11
45.1
 21
26.05
 31
0.0
  0
LINE
  8
0
 62
0
 10
45.1
 20
26.05
 30
0.0
 11
31.1
 21
26.05
 31
0.0
  0
CIRCLE
  8
0
 62
0
 10
103.0125
 20
50.625
 30
0.0
 40
1.5
  0
CIRCLE
  8
0
 62
0
 10
-103.0125
 20
-50.625
 30
0.0
 40
1.5
  0
LINE
  8
0
 62
0
 10
21.575
 20
31.1
 30
0.0
 11
35.575
 21
31.1
 31
0.0
  0
LINE
  8
0
 62
0
 10
21.575
 20
31.7
 30
0.0
 11
21.575
 21
31.1
 31
0.0
  0
LINE
  8
0
 62
0
 10
35.575
 20
31.1
 30
0.0
 11
35.575
 21
31.7
 31
0.0
  0
LINE
  8
0
 62
0
 10
20.775
 20
31.7
 30
0.0
 11
21.575
 21
31.7
 31
0.0
  0
LINE
  8
0
 62
0
 10
35.575
 20
31.7
 30
0.0
 11
36.375
 21
31.7
 31
0.0
  0
LINE
  8
0
 62
0
 10
20.775
 20
44.5
 30
0.0
 11
20.775
 21
31.7
 31
0.0
  0
LINE
  8
0
 62
0
 10
36.375
 20
31.7
 30
0.0
 11
36.375
 21
44.5
 31
0.0
  0
LINE
  8
0
 62
0
 10
21.575
 20
44.5
 30
0.0
 11
20.775
 21
44.5
 31
0.0
  0
LINE
  8
0
 62
0
 10
36.375
 20
44.5
 30
0.0
 11
35.575
 21
44.5
 31
0.0
  0
LINE
  8
0
 62
0
 10
21.575
 20
45.1
 30
0.0
 11
21.575
 21
44.5
 31
0.0
  0
LINE
  8
0
 62
0
 10
35.575
 20
44.5
 30
0.0
 11
35.575
 21
45.1
 31
0.0
  0
LINE
  8
0
 62
0
 10
35.575
 20
45.1
 30
0.0
 11
21.575
 21
45.1
 31
0.0
  0
LINE
  8
0
 62
0
 10
-2.525
 20
31.7
 30
0.0
 11
-1.725
 21
31.7
 31
0.0
  0
LINE
  8
0
 62
0
 10
-2.525
 20
31.1
 30
0.0
 11
-2.525
 21
31.7
 31
0.0
  0
LINE
  8
0
 62
0
 10
-1.725
 20
31.7
 30
0.0
 11
-1.725
 21
44.5
 31
0.0
  0
LINE
  8
0
 62
0
 10
-16.525
 20
31.1
 30
0.0
 11
-2.525
 21
31.1
 31
0.0
  0
LINE
  8
0
 62
0
 10
-1.725
 20
44.5
 30
0.0
 11
-2.525
 21
44.5
 31
0.0
  0
LINE
  8
0
 62
0
 10
-16.525
 20
31.7
 30
0.0
 11
-16.525
 21
31.1
 31
0.0
  0
LINE
  8
0
 62
0
 10
-2.525
 20
44.5
 30
0.0
 11
-2.525
 21
45.1
 31
0.0
  0
LINE
  8
0
 62
0
 10
-17.325
 20
31.7
 30
0.0
 11
-16.525
 21
31.7
 31
0.0
  0
LINE
  8
0
 62
0
 10
-2.525
 20
45.1
 30
0.0
 11
-16.525
 21
45.1
 31
0.0
  0
LINE
  8
0
 62
0
 10
-17.325
 20
44.5
 30
0.0
 11
-17.325
 21
31.7
 31
0.0
  0
LINE
  8
0
 62
0
 10
-16.525
 20
45.1
 30
0.0
 11
-16.525
 21
44.5
 31
0.0
  0
LINE
  8
0
 62
0
 10
-16.525
 20
44.5
 30
0.0
 11
-17.325
 21
44.5
 31
0.0
  0
LINE
  8
0
 62
0
 10
21.2875
 20
-26.05
 30
0.0
 11
21.2875
 21
-25.45
 31
0.0
  0
LINE
  8
0
 62
0
 10
7.2875
 20
-26.05
 30
0.0
 11
21.2875
 21
-26.05
 31
0.0
  0
LINE
  8
0
 62
0
 10
21.2875
 20
-25.45
 30
0.0
 11
22.0875
 21
-25.45
 31
0.0
  0
LINE
  8
0
 62
0
 10
7.2875
 20
-25.45
 30
0.0
 11
7.2875
 21
-26.05
 31
0.0
  0
LINE
  8
0
 62
0
 10
22.0875
 20
-25.45
 30
0.0
 11
22.0875
 21
-12.65
 31
0.0
  0
LINE
  8
0
 62
0
 10
6.4875
 20
-25.45
 30
0.0
 11
7.2875
 21
-25.45
 31
0.0
  0
LINE
  8
0
 62
0
 10
22.0875
 20
-12.65
 30
0.0
 11
21.2875
 21
-12.65
 31
0.0
  0
LINE
  8
0
 62
0
 10
6.4875
 20
-12.65
 30
0.0
 11
6.4875
 21
-25.45
 31
0.0
  0
LINE
  8
0
 62
0
 10
21.2875
 20
-12.65
 30
0.0
 11
21.2875
 21
-12.05
 31
0.0
  0
LINE
  8
0
 62
0
 10
7.2875
 20
-12.65
 30
0.0
 11
6.4875
 21
-12.65
 31
0.0
  0
LINE
  8
0
 62
0
 10
21.2875
 20
-12.05
 30
0.0
 11
7.2875
 21
-12.05
 31
0.0
  0
LINE
  8
0
 62
0
 10
7.2875
 20
-12.05
 30
0.0
 11
7.2875
 21
-12.65
 31
0.0
  0
LINE
  8
0
 62
0
 10
69.7125
 20
-6.4
 30
0.0
 11
69.7125
 21
6.4
 31
0.0
  0
LINE
  8
0
 62
0
 10
68.9125
 20
-6.4
 30
0.0
 11
69.7125
 21
-6.4
 31
0.0
  0
LINE
  8
0
 62
0
 10
69.7125
 20
6.4
 30
0.0
 11
68.9125
 21
6.4
 31
0.0
  0
LINE
  8
0
 62
0
 10
68.9125
 20
-7.0
 30
0.0
 11
68.9125
 21
-6.4
 31
0.0
  0
LINE
  8
0
 62
0
 10
68.9125
 20
6.4
 30
0.0
 11
68.9125
 21
7.0
 31
0.0
  0
LINE
  8
0
 62
0
 10
54.9125
 20
-7.0
 30
0.0
 11
68.9125
 21
-7.0
 31
0.0
  0
LINE
  8
0
 62
0
 10
68.9125
 20
7.0
 30
0.0
 11
54.9125
 21
7.0
 31
0.0
  0
LINE
  8
0
 62
0
 10
54.9125
 20
-6.4
 30
0.0
 11
54.9125
 21
-7.0
 31
0.0
  0
LINE
  8
0
 62
0
 10
54.9125
 20
7.0
 30
0.0
 11
54.9125
 21
6.4
 31
0.0
  0
LINE
  8
0
 62
0
 10
54.1125
 20
-6.4
 30
0.0
 11
54.9125
 21
-6.4
 31
0.0
  0
LINE
  8
0
 62
0
 10
54.9125
 20
6.4
 30
0.0
 11
54.1125
 21
6.4
 31
0.0
  0
LINE
  8
0
 62
0
 10
54.1125
 20
6.4
 30
0.0
 11
54.1125
 21
-6.4
 31
0.0
  0
LINE
  8
0
 62
0
 10
-33.48125
 20
-7.0
 30
0.0
 11
-33.48125
 21
-6.4
 31
0.0
  0
LINE
  8
0
 62
0
 10
-47.48125
 20
-7.0
 30
0.0
 11
-33.48125
 21
-7.0
 31
0.0
  0
LINE
  8
0
 62
0
 10
-33.48125
 20
-6.4
 30
0.0
 11
-32.68125
 21
-6.4
 31
0.0
  0
LINE
  8
0
 62
0
 10
-47.48125
 20
-6.4
 30
0.0
 11
-47.48125
 21
-7.0
 31
0.0
  0
LINE
  8
0
 62
0
 10
-32.68125
 20
-6.4
 30
0.0
 11
-32.68125
 21
6.4
 31
0.0
  0
LINE
  8
0
 62
0
 10
-48.28125
 20
-6.4
 30
0.0
 11
-47.48125
 21
-6.4
 31
0.0
  0
LINE
  8
0
 62
0
 10
-32.68125
 20
6.4
 30
0.0
 11
-33.48125
 21
6.4
 31
0.0
  0
LINE
  8
0
 62
0
 10
-48.28125
 20
6.4
 30
0.0
 11
-48.28125
 21
-6.4
 31
0.0
  0
LINE
  8
0
 62
0
 10
-33.48125
 20
6.4
 30
0.0
 11
-33.48125
 21
7.0
 31
0.0
  0
LINE
  8
0
 62
0
 10
-47.48125
 20
6.4
 30
0.0
 11
-48.28125
 21
6.4
 31
0.0
  0
LINE
  8
0
 62
0
 10
-33.48125
 20
7.0
 30
0.0
 11
-47.48125
 21
7.0
 31
0.0
  0
LINE
  8
0
 62
0
 10
-47.48125
 20
7.0
 30
0.0
 11
-47.48125
 21
6.4
 31
0.0
  0
LINE
  8
0
 62
0
 10
-13.63125
 20
-31.7
 30
0.0
 11
-14.43125
 21
-31.7
 31
0.0
  0
LINE
  8
0
 62
0
 10
-13.63125
 20
-44.5
 30
0.0
 11
-13.63125
 21
-31.7
 31
0.0
  0
LINE
  8
0
 62
0
 10
-14.43125
 20
-31.7
 30
0.0
 11
-14.43125
 21
-31.1
 31
0.0
  0
LINE
  8
0
 62
0
 10
-14.43125
 20
-44.5
 30
0.0
 11
-13.63125
 21
-44.5
 31
0.0
  0
LINE
  8
0
 62
0
 10
-14.43125
 20
-31.1
 30
0.0
 11
-28.43125
 21
-31.1
 31
0.0
  0
LINE
  8
0
 62
0
 10
-14.43125
 20
-45.1
 30
0.0
 11
-14.43125
 21
-44.5
 31
0.0
  0
LINE
  8
0
 62
0
 10
-28.43125
 20
-31.1
 30
0.0
 11
-28.43125
 21
-31.7
 31
0.0
  0
LINE
  8
0
 62
0
 10
-28.43125
 20
-45.1
 30
0.0
 11
-14.43125
 21
-45.1
 31
0.0
  0
LINE
  8
0
 62
0
 10
-28.43125
 20
-31.7
 30
0.0
 11
-29.23125
 21
-31.7
 31
0.0
  0
LINE
  8
0
 62
0
 10
-28.43125
 20
-44.5
 30
0.0
 11
-28.43125
 21
-45.1
 31
0.0
  0
LINE
  8
0
 62
0
 10
-29.23125
 20
-31.7
 30
0.0
 11
-29.23125
 21
-44.5
 31
0.0
  0
LINE
  8
0
 62
0
 10
-29.23125
 20
-44.5
 30
0.0
 11
-28.43125
 21
-44.5
 31
0.0
  0
CIRCLE
  8
0
 62
0
 10
34.3375
 20
-50.625
 30
0.0
 40
1.5
  0
LINE
  8
0
 62
0
 10
66.53125
 20
26.05
 30
0.0
 11
52.53125
 21
26.05
 31
0.0
  0
LINE
  8
0
 62
0
 10
66.53125
 20
25.45
 30
0.0
 11
66.53125
 21
26.05
 31
0.0
  0
LINE
  8
0
 62
0
 10
52.53125
 20
26.05
 30
0.0
 11
52.53125
 21
25.45
 31
0.0
  0
LINE
  8
0
 62
0
 10
67.33125
 20
25.45
 30
0.0
 11
66.53125
 21
25.45
 31
0.0
  0
LINE
  8
0
 62
0
 10
52.53125
 20
25.45
 30
0.0
 11
51.73125
 21
25.45
 31
0.0
  0
LINE
  8
0
 62
0
 10
67.33125
 20
12.65
 30
0.0
 11
67.33125
 21
25.45
 31
0.0
  0
LINE
  8
0
 62
0
 10
51.73125
 20
25.45
 30
0.0
 11
51.73125
 21
12.65
 31
0.0
  0
LINE
  8
0
 62
0
 10
66.53125
 20
12.65
 30
0.0
 11
67.33125
 21
12.65
 31
0.0
  0
LINE
  8
0
 62
0
 10
51.73125
 20
12.65
 30
0.0
 11
52.53125
 21
12.65
 31
0.0
  0
LINE
  8
0
 62
0
 10
66.53125
 20
12.05
 30
0.0
 11
66.53125
 21
12.65
 31
0.0
  0
LINE
  8
0
 62
0
 10
52.53125
 20
12.65
 30
0.0
 11
52.53125
 21
12.05
 31
0.0
  0
LINE
  8
0
 62
0
 10
52.53125
 20
12.05
 30
0.0
 11
66.53125
 21
12.05
 31
0.0
  0
LINE
  8
0
 62
0
 10
-36.375
 20
31.7
 30
0.0
 11
-35.575
 21
31.7
 31
0.0
  0
LINE
  8
0
 62
0
 10
-36.375
 20
44.5
 30
0.0
 11
-36.375
 21
31.7
 31
0.0
  0
LINE
  8
0
 62
0
 10
-35.575
 20
31.7
 30
0.0
 11
-35.575
 21
31.1
 31
0.0
  0
LINE
  8
0
 62
0
 10
-35.575
 20
44.5
 30
0.0
 11
-36.375
 21
44.5
 31
0.0
  0
LINE
  8
0
 62
0
 10
-35.575
 20
31.1
 30
0.0
 11
-21.575
 21
31.1
 31
0.0
  0
LINE
  8
0
 62
0
 10
-35.575
 20
45.1
 30
0.0
 11
-35.575
 21
44.5
 31
0.0
  0
LINE
  8
0
 62
0
 10
-21.575
 20
31.1
 30
0.0
 11
-21.575
 21
31.7
 31
0.0
  0
LINE
  8
0
 62
0
 10
-21.575
 20
45.1
 30
0.0
 11
-35.575
 21
45.1
 31
0.0
  0
LINE
  8
0
 62
0
 10
-21.575
 20
31.7
 30
0.0
 11
-20.775
 21
31.7
 31
0.0
  0
LINE
  8
0
 62
0
 10
-21.575
 20
44.5
 30
0.0
 11
-21.575
 21
45.1
 31
0.0
  0
LINE
  8
0
 62
0
 10
-20.775
 20
31.7
 30
0.0
 11
-20.775
 21
44.5
 31
0.0
  0
LINE
  8
0
 62
0
 10
-20.775
 20
44.5
 30
0.0
 11
-21.575
 21
44.5
 31
0.0
  0
LINE
  8
0
 62
0
 10
11.25
 20
25.45
 30
0.0
 11
11.25
 21
12.65
 31
0.0
  0
LINE
  8
0
 62
0
 10
12.05
 20
25.45
 30
0.0
 11
11.25
 21
25.45
 31
0.0
  0
LINE
  8
0
 62
0
 10
11.25
 20
12.65
 30
0.0
 11
12.05
 21
12.65
 31
0.0
  0
LINE
  8
0
 62
0
 10
12.05
 20
26.05
 30
0.0
 11
12.05
 21
25.45
 31
0.0
  0
LINE
  8
0
 62
0
 10
12.05
 20
12.65
 30
0.0
 11
12.05
 21
12.05
 31
0.0
  0
LINE
  8
0
 62
0
 10
26.05
 20
26.05
 30
0.0
 11
12.05
 21
26.05
 31
0.0
  0
LINE
  8
0
 62
0
 10
12.05
 20
12.05
 30
0.0
 11
26.05
 21
12.05
 31
0.0
  0
LINE
  8
0
 62
0
 10
26.05
 20
25.45
 30
0.0
 11
26.05
 21
26.05
 31
0.0
  0
LINE
  8
0
 62
0
 10
26.05
 20
12.05
 30
0.0
 11
26.05
 21
12.65
 31
0.0
  0
LINE
  8
0
 62
0
 10
26.85
 20
25.45
 30
0.0
 11
26.05
 21
25.45
 31
0.0
  0
LINE
  8
0
 62
0
 10
26.05
 20
12.65
 30
0.0
 11
26.85
 21
12.65
 31
0.0
  0
LINE
  8
0
 62
0
 10
26.85
 20
12.65
 30
0.0
 11
26.85
 21
25.45
 31
0.0
  0
LINE
  8
0
 62
0
 10
7.0
 20
12.65
 30
0.0
 11
7.8
 21
12.65
 31
0.0
  0
LINE
  8
0
 62
0
 10
7.0
 20
12.05
 30
0.0
 11
7.0
 21
12.65
 31
0.0
  0
LINE
  8
0
 62
0
 10
7.8
 20
12.65
 30
0.0
 11
7.8
 21
25.45
 31
0.0
  0
LINE
  8
0
 62
0
 10
-7.0
 20
12.05
 30
0.0
 11
7.0
 21
12.05
 31
0.0
  0
LINE
  8
0
 62
0
 10
7.8
 20
25.45
 30
0.0
 11
7.0
 21
25.45
 31
0.0
  0
LINE
  8
0
 62
0
 10
-7.0
 20
12.65
 30
0.0
 11
-7.0
 21
12.05
 31
0.0
  0
LINE
  8
0
 62
0
 10
7.0
 20
25.45
 30
0.0
 11
7.0
 21
26.05
 31
0.0
  0
LINE
  8
0
 62
0
 10
-7.8
 20
12.65
 30
0.0
 11
-7.0
 21
12.65
 31
0.0
  0
LINE
  8
0
 62
0
 10
7.0
 20
26.05
 30
0.0
 11
-7.0
 21
26.05
 31
0.0
  0
LINE
  8
0
 62
0
 10
-7.8
 20
25.45
 30
0.0
 11
-7.8
 21
12.65
 31
0.0
  0
LINE
  8
0
 62
0
 10
-7.0
 20
26.05
 30
0.0
 11
-7.0
 21
25.45
 31
0.0
  0
LINE
  8
0
 62
0
 10
-7.0
 20
25.45
 30
0.0
 11
-7.8
 21
25.45
 31
0.0
  0
LINE
  8
0
 62
0
 10
-11.25
 20
25.45
 30
0.0
 11
-12.05
 21
25.45
 31
0.0
  0
LINE
  8
0
 62
0
 10
-11.25
 20
12.65
 30
0.0
 11
-11.25
 21
25.45
 31
0.0
  0
LINE
  8
0
 62
0
 10
-12.05
 20
25.45
 30
0.0
 11
-12.05
 21
26.05
 31
0.0
  0
LINE
  8
0
 62
0
 10
-12.05
 20
12.65
 30
0.0
 11
-11.25
 21
12.65
 31
0.0
  0
LINE
  8
0
 62
0
 10
-12.05
 20
26.05
 30
0.0
 11
-26.05
 21
26.05
 31
0.0
  0
LINE
  8
0
 62
0
 10
-12.05
 20
12.05
 30
0.0
 11
-12.05
 21
12.65
 31
0.0
  0
LINE
  8
0
 62
0
 10
-26.05
 20
26.05
 30
0.0
 11
-26.05
 21
25.45
 31
0.0
  0
LINE
  8
0
 62
0
 10
-26.05
 20
12.05
 30
0.0
 11
-12.05
 21
12.05
 31
0.0
  0
LINE
  8
0
 62
0
 10
-26.05
 20
25.45
 30
0.0
 11
-26.85
 21
25.45
 31
0.0
  0
LINE
  8
0
 62
0
 10
-26.05
 20
12.65
 30
0.0
 11
-26.05
 21
12.05
 31
0.0
  0
LINE
  8
0
 62
0
 10
-26.85
 20
25.45
 30
0.0
 11
-26.85
 21
12.65
 31
0.0
  0
LINE
  8
0
 62
0
 10
-26.85
 20
12.65
 30
0.0
 11
-26.05
 21
12.65
 31
0.0
  0
CIRCLE
  8
0
 62
0
 10
-103.0125
 20
50.625
 30
0.0
 40
1.5
  0
LINE
  8
0
 62
0
 10
-80.30625
 20
12.65
 30
0.0
 11
-80.30625
 21
25.45
 31
0.0
  0
LINE
  8
0
 62
0
 10
-81.10625
 20
12.65
 30
0.0
 11
-80.30625
 21
12.65
 31
0.0
  0
LINE
  8
0
 62
0
 10
-80.30625
 20
25.45
 30
0.0
 11
-81.10625
 21
25.45
 31
0.0
  0
LINE
  8
0
 62
0
 10
-81.10625
 20
12.05
 30
0.0
 11
-81.10625
 21
12.65
 31
0.0
  0
LINE
  8
0
 62
0
 10
-81.10625
 20
25.45
 30
0.0
 11
-81.10625
 21
26.05
 31
0.0
  0
LINE
  8
0
 62
0
 10
-95.10625
 20
12.05
 30
0.0
 11
-81.10625
 21
12.05
 31
0.0
  0
LINE
  8
0
 62
0
 10
-81.10625
 20
26.05
 30
0.0
 11
-95.10625
 21
26.05
 31
0.0
  0
LINE
  8
0
 62
0
 10
-95.10625
 20
12.65
 30
0.0
 11
-95.10625
 21
12.05
 31
0.0
  0
LINE
  8
0
 62
0
 10
-95.10625
 20
26.05
 30
0.0
 11
-95.10625
 21
25.45
 31
0.0
  0
LINE
  8
0
 62
0
 10
-95.90625
 20
12.65
 30
0.0
 11
-95.10625
 21
12.65
 31
0.0
  0
LINE
  8
0
 62
0
 10
-95.10625
 20
25.45
 30
0.0
 11
-95.90625
 21
25.45
 31
0.0
  0
LINE
  8
0
 62
0
 10
-95.90625
 20
25.45
 30
0.0
 11
-95.90625
 21
12.65
 31
0.0
  0
LINE
  8
0
 62
0
 10
-2.2375
 20
-6.4
 30
0.0
 11
-2.2375
 21
-7.0
 31
0.0
  0
LINE
  8
0
 62
0
 10
-3.0375
 20
-6.4
 30
0.0
 11
-2.2375
 21
-6.4
 31
0.0
  0
LINE
  8
0
 62
0
 10
-2.2375
 20
-7.0
 30
0.0
 11
11.7625
 21
-7.0
 31
0.0
  0
LINE
  8
0
 62
0
 10
-3.0375
 20
6.4
 30
0.0
 11
-3.0375
 21
-6.4
 31
0.0
  0
LINE
  8
0
 62
0
 10
11.7625
 20
-7.0
 30
0.0
 11
11.7625
 21
-6.4
 31
0.0
  0
LINE
  8
0
 62
0
 10
-2.2375
 20
6.4
 30
0.0
 11
-3.0375
 21
6.4
 31
0.0
  0
LINE
  8
0
 62
0
 10
11.7625
 20
-6.4
 30
0.0
 11
12.5625
 21
-6.4
 31
0.0
  0
LINE
  8
0
 62
0
 10
-2.2375
 20
7.0
 30
0.0
 11
-2.2375
 21
6.4
 31
0.0
  0
LINE
  8
0
 62
0
 10
12.5625
 20
-6.4
 30
0.0
 11
12.5625
 21
6.4
 31
0.0
  0
LINE
  8
0
 62
0
 10
11.7625
 20
7.0
 30
0.0
 11
-2.2375
 21
7.0
 31
0.0
  0
LINE
  8
0
 62
0
 10
12.5625
 20
6.4
 30
0.0
 11
11.7625
 21
6.4
 31
0.0
  0
LINE
  8
0
 62
0
 10
11.7625
 20
6.4
 30
0.0
 11
11.7625
 21
7.0
 31
0.0
  0
CIRCLE
  8
0
 62
0
 10
-34.3375
 20
50.625
 30
0.0
 40
1.5
  0
LINE
  8
0
 62
0
 10
-39.825
 20
31.7
 30
0.0
 11
-39.825
 21
44.5
 31
0.0
  0
LINE
  8
0
 62
0
 10
-40.625
 20
31.7
 30
0.0
 11
-39.825
 21
31.7
 31
0.0
  0
LINE
  8
0
 62
0
 10
-39.825
 20
44.5
 30
0.0
 11
-40.625
 21
44.5
 31
0.0
  0
LINE
  8
0
 62
0
 10
-40.625
 20
31.1
 30
0.0
 11
-40.625
 21
31.7
 31
0.0
  0
LINE
  8
0
 62
0
 10
-40.625
 20
44.5
 30
0.0
 11
-40.625
 21
45.1
 31
0.0
  0
LINE
  8
0
 62
0
 10
-54.625
 20
31.1
 30
0.0
 11
-40.625
 21
31.1
 31
0.0
  0
LINE
  8
0
 62
0
 10
-40.625
 20
45.1
 30
0.0
 11
-54.625
 21
45.1
 31
0.0
  0
LINE
  8
0
 62
0
 10
-54.625
 20
31.7
 30
0.0
 11
-54.625
 21
31.1
 31
0.0
  0
LINE
  8
0
 62
0
 10
-54.625
 20
45.1
 30
0.0
 11
-54.625
 21
44.5
 31
0.0
  0
LINE
  8
0
 62
0
 10
-55.425
 20
31.7
 30
0.0
 11
-54.625
 21
31.7
 31
0.0
  0
LINE
  8
0
 62
0
 10
-54.625
 20
44.5
 30
0.0
 11
-55.425
 21
44.5
 31
0.0
  0
LINE
  8
0
 62
0
 10
-55.425
 20
44.5
 30
0.0
 11
-55.425
 21
31.7
 31
0.0
  0
LINE
  8
0
 62
0
 10
-52.24375
 20
-44.5
 30
0.0
 11
-52.24375
 21
-45.1
 31
0.0
  0
LINE
  8
0
 62
0
 10
-53.04375
 20
-44.5
 30
0.0
 11
-52.24375
 21
-44.5
 31
0.0
  0
LINE
  8
0
 62
0
 10
-52.24375
 20
-45.1
 30
0.0
 11
-38.24375
 21
-45.1
 31
0.0
  0
LINE
  8
0
 62
0
 10
-53.04375
 20
-31.7
 30
0.0
 11
-53.04375
 21
-44.5
 31
0.0
  0
LINE
  8
0
 62
0
 10
-38.24375
 20
-45.1
 30
0.0
 11
-38.24375
 21
-44.5
 31
0.0
  0
LINE
  8
0
 62
0
 10
-52.24375
 20
-31.7
 30
0.0
 11
-53.04375
 21
-31.7
 31
0.0
  0
LINE
  8
0
 62
0
 10
-38.24375
 20
-44.5
 30
0.0
 11
-37.44375
 21
-44.5
 31
0.0
  0
LINE
  8
0
 62
0
 10
-52.24375
 20
-31.1
 30
0.0
 11
-52.24375
 21
-31.7
 31
0.0
  0
LINE
  8
0
 62
0
 10
-37.44375
 20
-44.5
 30
0.0
 11
-37.44375
 21
-31.7
 31
0.0
  0
LINE
  8
0
 62
0
 10
-38.24375
 20
-31.1
 30
0.0
 11
-52.24375
 21
-31.1
 31
0.0
  0
LINE
  8
0
 62
0
 10
-37.44375
 20
-31.7
 30
0.0
 11
-38.24375
 21
-31.7
 31
0.0
  0
LINE
  8
0
 62
0
 10
-38.24375
 20
-31.7
 30
0.0
 11
-38.24375
 21
-31.1
 31
0.0
  0
LINE
  8
0
 62
0
 10
-95.10625
 20
-12.65
 30
0.0
 11
-95.90625
 21
-12.65
 31
0.0
  0
LINE
  8
0
 62
0
 10
-95.10625
 20
-12.05
 30
0.0
 11
-95.10625
 21
-12.65
 31
0.0
  0
LINE
  8
0
 62
0
 10
-95.90625
 20
-12.65
 30
0.0
 11
-95.90625
 21
-25.45
 31
0.0
  0
LINE
  8
0
 62
0
 10
-81.10625
 20
-12.05
 30
0.0
 11
-95.10625
 21
-12.05
 31
0.0
  0
LINE
  8
0
 62
0
 10
-95.90625
 20
-25.45
 30
0.0
 11
-95.10625
 21
-25.45
 31
0.0
  0
LINE
  8
0
 62
0
 10
-81.10625
 20
-12.65
 30
0.0
 11
-81.10625
 21
-12.05
 31
0.0
  0
LINE
  8
0
 62
0
 10
-95.10625
 20
-25.45
 30
0.0
 11
-95.10625
 21
-26.05
 31
0.0
  0
LINE
  8
0
 62
0
 10
-80.30625
 20
-12.65
 30
0.0
 11
-81.10625
 21
-12.65
 31
0.0
  0
LINE
  8
0
 62
0
 10
-95.10625
 20
-26.05
 30
0.0
 11
-81.10625
 21
-26.05
 31
0.0
  0
LINE
  8
0
 62
0
 10
-80.30625
 20
-25.45
 30
0.0
 11
-80.30625
 21
-12.65
 31
0.0
  0
LINE
  8
0
 62
0
 10
-81.10625
 20
-26.05
 30
0.0
 11
-81.10625
 21
-25.45
 31
0.0
  0
LINE
  8
0
 62
0
 10
-81.10625
 20
-25.45
 30
0.0
 11
-80.30625
 21
-25.45
 31
0.0
  0
LINE
  8
0
 62
0
 10
-28.71875
 20
-25.45
 30
0.0
 11
-27.91875
 21
-25.45
 31
0.0
  0
LINE
  8
0
 62
0
 10
-28.71875
 20
-26.05
 30
0.0
 11
-28.71875
 21
-25.45
 31
0.0
  0
LINE
  8
0
 62
0
 10
-27.91875
 20
-25.45
 30
0.0
 11
-27.91875
 21
-25.02
 31
0.0
  0
LINE
  8
0
 62
0
 10
-42.71875
 20
-26.05
 30
0.0
 11
-28.71875
 21
-26.05
 31
0.0
  0
LINE
  8
0
 62
0
 10
-27.91875
 20
-25.02
 30
0.0
 11
-27.14375
 21
-25.02
 31
0.0
  0
LINE
  8
0
 62
0
 10
-42.71875
 20
-25.45
 30
0.0
 11
-42.71875
 21
-26.05
 31
0.0
  0
LINE
  8
0
 62
0
 10
-27.14375
 20
-25.02
 30
0.0
 11
-27.14375
 21
-25.82
 31
0.0
  0
LINE
  8
0
 62
0
 10
-43.51875
 20
-25.45
 30
0.0
 11
-42.71875
 21
-25.45
 31
0.0
  0
LINE
  8
0
 62
0
 10
-27.14375
 20
-25.82
 30
0.0
 11
-25.41875
 21
-25.82
 31
0.0
  0
LINE
  8
0
 62
0
 10
-43.51875
 20
-25.02
 30
0.0
 11
-43.51875
 21
-25.45
 31
0.0
  0
LINE
  8
0
 62
0
 10
-25.41875
 20
-25.82
 30
0.0
 11
-25.41875
 21
-26.8
 31
0.0
  0
LINE
  8
0
 62
0
 10
-44.29375
 20
-25.02
 30
0.0
 11
-43.51875
 21
-25.02
 31
0.0
  0
LINE
  8
0
 62
0
 10
-25.41875
 20
-26.8
 30
0.0
 11
-22.11875
 21
-26.8
 31
0.0
  0
LINE
  8
0
 62
0
 10
-44.29375
 20
-25.82
 30
0.0
 11
-44.29375
 21
-25.02
 31
0.0
  0
LINE
  8
0
 62
0
 10
-22.11875
 20
-26.8
 30
0.0
 11
-22.11875
 21
-25.82
 31
0.0
  0
LINE
  8
0
 62
0
 10
-46.01875
 20
-25.82
 30
0.0
 11
-44.29375
 21
-25.82
 31
0.0
  0
LINE
  8
0
 62
0
 10
-22.11875
 20
-25.82
 30
0.0
 11
-20.49375
 21
-25.82
 31
0.0
  0
LINE
  8
0
 62
0
 10
-46.01875
 20
-26.8
 30
0.0
 11
-46.01875
 21
-25.82
 31
0.0
  0
LINE
  8
0
 62
0
 10
-20.49375
 20
-25.82
 30
0.0
 11
-20.49375
 21
-19.55
 31
0.0
  0
LINE
  8
0
 62
0
 10
-49.31875
 20
-26.8
 30
0.0
 11
-46.01875
 21
-26.8
 31
0.0
  0
LINE
  8
0
 62
0
 10
-20.49375
 20
-19.55
 30
0.0
 11
-19.61875
 21
-19.55
 31
0.0
  0
LINE
  8
0
 62
0
 10
-49.31875
 20
-25.82
 30
0.0
 11
-49.31875
 21
-26.8
 31
0.0
  0
LINE
  8
0
 62
0
 10
-19.61875
 20
-19.55
 30
0.0
 11
-19.61875
 21
-16.75
 31
0.0
  0
LINE
  8
0
 62
0
 10
-50.94375
 20
-25.82
 30
0.0
 11
-49.31875
 21
-25.82
 31
0.0
  0
LINE
  8
0
 62
0
 10
-19.61875
 20
-16.75
 30
0.0
 11
-20.49375
 21
-16.75
 31
0.0
  0
LINE
  8
0
 62
0
 10
-50.94375
 20
-19.55
 30
0.0
 11
-50.94375
 21
-25.82
 31
0.0
  0
LINE
  8
0
 62
0
 10
-20.49375
 20
-16.75
 30
0.0
 11
-20.49375
 21
-13.52
 31
0.0
  0
LINE
  8
0
 62
0
 10
-51.81875
 20
-19.55
 30
0.0
 11
-50.94375
 21
-19.55
 31
0.0
  0
LINE
  8
0
 62
0
 10
-20.49375
 20
-13.52
 30
0.0
 11
-22.11875
 21
-13.52
 31
0.0
  0
LINE
  8
0
 62
0
 10
-51.81875
 20
-16.75
 30
0.0
 11
-51.81875
 21
-19.55
 31
0.0
  0
LINE
  8
0
 62
0
 10
-22.11875
 20
-13.52
 30
0.0
 11
-22.11875
 21
-12.65
 31
0.0
  0
LINE
  8
0
 62
0
 10
-50.94375
 20
-16.75
 30
0.0
 11
-51.81875
 21
-16.75
 31
0.0
  0
LINE
  8
0
 62
0
 10
-22.11875
 20
-12.65
 30
0.0
 11
-25.41875
 21
-12.65
 31
0.0
  0
LINE
  8
0
 62
0
 10
-50.94375
 20
-13.52
 30
0.0
 11
-50.94375
 21
-16.75
 31
0.0
  0
LINE
  8
0
 62
0
 10
-25.41875
 20
-12.65
 30
0.0
 11
-25.41875
 21
-13.52
 31
0.0
  0
LINE
  8
0
 62
0
 10
-49.31875
 20
-13.52
 30
0.0
 11
-50.94375
 21
-13.52
 31
0.0
  0
LINE
  8
0
 62
0
 10
-25.41875
 20
-13.52
 30
0.0
 11
-27.14375
 21
-13.52
 31
0.0
  0
LINE
  8
0
 62
0
 10
-49.31875
 20
-12.65
 30
0.0
 11
-49.31875
 21
-13.52
 31
0.0
  0
LINE
  8
0
 62
0
 10
-27.14375
 20
-13.52
 30
0.0
 11
-27.14375
 21
-14.32
 31
0.0
  0
LINE
  8
0
 62
0
 10
-46.01875
 20
-12.65
 30
0.0
 11
-49.31875
 21
-12.65
 31
0.0
  0
LINE
  8
0
 62
0
 10
-27.14375
 20
-14.32
 30
0.0
 11
-27.91875
 21
-14.32
 31
0.0
  0
LINE
  8
0
 62
0
 10
-46.01875
 20
-13.52
 30
0.0
 11
-46.01875
 21
-12.65
 31
0.0
  0
LINE
  8
0
 62
0
 10
-27.91875
 20
-14.32
 30
0.0
 11
-27.91875
 21
-12.65
 31
0.0
  0
LINE
  8
0
 62
0
 10
-44.29375
 20
-13.52
 30
0.0
 11
-46.01875
 21
-13.52
 31
0.0
  0
LINE
  8
0
 62
0
 10
-27.91875
 20
-12.65
 30
0.0
 11
-28.71875
 21
-12.65
 31
0.0
  0
LINE
  8
0
 62
0
 10
-44.29375
 20
-14.32
 30
0.0
 11
-44.29375
 21
-13.52
 31
0.0
  0
LINE
  8
0
 62
0
 10
-28.71875
 20
-12.65
 30
0.0
 11
-28.71875
 21
-12.05
 31
0.0
  0
LINE
  8
0
 62
0
 10
-43.51875
 20
-14.32
 30
0.0
 11
-44.29375
 21
-14.32
 31
0.0
  0
LINE
  8
0
 62
0
 10
-28.71875
 20
-12.05
 30
0.0
 11
-42.71875
 21
-12.05
 31
0.0
  0
LINE
  8
0
 62
0
 10
-43.51875
 20
-12.65
 30
0.0
 11
-43.51875
 21
-14.32
 31
0.0
  0
LINE
  8
0
 62
0
 10
-42.71875
 20
-12.05
 30
0.0
 11
-42.71875
 21
-12.65
 31
0.0
  0
LINE
  8
0
 62
0
 10
-42.71875
 20
-12.65
 30
0.0
 11
-43.51875
 21
-12.65
 31
0.0
  0
LINE
  8
0
 62
0
 10
44.5875
 20
-31.7
 30
0.0
 11
44.5875
 21
-44.5
 31
0.0
  0
LINE
  8
0
 62
0
 10
45.3875
 20
-31.7
 30
0.0
 11
44.5875
 21
-31.7
 31
0.0
  0
LINE
  8
0
 62
0
 10
44.5875
 20
-44.5
 30
0.0
 11
45.3875
 21
-44.5
 31
0.0
  0
LINE
  8
0
 62
0
 10
45.3875
 20
-31.1
 30
0.0
 11
45.3875
 21
-31.7
 31
0.0
  0
LINE
  8
0
 62
0
 10
45.3875
 20
-44.5
 30
0.0
 11
45.3875
 21
-45.1
 31
0.0
  0
LINE
  8
0
 62
0
 10
59.3875
 20
-31.1
 30
0.0
 11
45.3875
 21
-31.1
 31
0.0
  0
LINE
  8
0
 62
0
 10
45.3875
 20
-45.1
 30
0.0
 11
59.3875
 21
-45.1
 31
0.0
  0
LINE
  8
0
 62
0
 10
59.3875
 20
-31.7
 30
0.0
 11
59.3875
 21
-31.1
 31
0.0
  0
LINE
  8
0
 62
0
 10
59.3875
 20
-45.1
 30
0.0
 11
59.3875
 21
-44.5
 31
0.0
  0
LINE
  8
0
 62
0
 10
60.1875
 20
-31.7
 30
0.0
 11
59.3875
 21
-31.7
 31
0.0
  0
LINE
  8
0
 62
0
 10
59.3875
 20
-44.5
 30
0.0
 11
60.1875
 21
-44.5
 31
0.0
  0
LINE
  8
0
 62
0
 10
60.1875
 20
-44.5
 30
0.0
 11
60.1875
 21
-31.7
 31
0.0
  0
LINE
  8
0
 62
0
 10
-50.6625
 20
25.45
 30
0.0
 11
-50.6625
 21
12.65
 31
0.0
  0
LINE
  8
0
 62
0
 10
-49.8625
 20
25.45
 30
0.0
 11
-50.6625
 21
25.45
 31
0.0
  0
LINE
  8
0
 62
0
 10
-50.6625
 20
12.65
 30
0.0
 11
-49.8625
 21
12.65
 31
0.0
  0
LINE
  8
0
 62
0
 10
-49.8625
 20
26.05
 30
0.0
 11
-49.8625
 21
25.45
 31
0.0
  0
LINE
  8
0
 62
0
 10
-49.8625
 20
12.65
 30
0.0
 11
-49.8625
 21
12.05
 31
0.0
  0
LINE
  8
0
 62
0
 10
-35.8625
 20
26.05
 30
0.0
 11
-49.8625
 21
26.05
 31
0.0
  0
LINE
  8
0
 62
0
 10
-49.8625
 20
12.05
 30
0.0
 11
-35.8625
 21
12.05
 31
0.0
  0
LINE
  8
0
 62
0
 10
-35.8625
 20
25.45
 30
0.0
 11
-35.8625
 21
26.05
 31
0.0
  0
LINE
  8
0
 62
0
 10
-35.8625
 20
12.05
 30
0.0
 11
-35.8625
 21
12.65
 31
0.0
  0
LINE
  8
0
 62
0
 10
-35.0625
 20
25.45
 30
0.0
 11
-35.8625
 21
25.45
 31
0.0
  0
LINE
  8
0
 62
0
 10
-35.8625
 20
12.65
 30
0.0
 11
-35.0625
 21
12.65
 31
0.0
  0
LINE
  8
0
 62
0
 10
-35.0625
 20
12.65
 30
0.0
 11
-35.0625
 21
25.45
 31
0.0
  0
LINE
  8
0
 62
0
 10
78.725
 20
-6.4
 30
0.0
 11
78.725
 21
-7.0
 31
0.0
  0
LINE
  8
0
 62
0
 10
77.925
 20
-6.4
 30
0.0
 11
78.725
 21
-6.4
 31
0.0
  0
LINE
  8
0
 62
0
 10
78.725
 20
-7.0
 30
0.0
 11
92.725
 21
-7.0
 31
0.0
  0
LINE
  8
0
 62
0
 10
77.925
 20
6.4
 30
0.0
 11
77.925
 21
-6.4
 31
0.0
  0
LINE
  8
0
 62
0
 10
92.725
 20
-7.0
 30
0.0
 11
92.725
 21
-6.4
 31
0.0
  0
LINE
  8
0
 62
0
 10
78.725
 20
6.4
 30
0.0
 11
77.925
 21
6.4
 31
0.0
  0
LINE
  8
0
 62
0
 10
92.725
 20
-6.4
 30
0.0
 11
93.525
 21
-6.4
 31
0.0
  0
LINE
  8
0
 62
0
 10
78.725
 20
7.0
 30
0.0
 11
78.725
 21
6.4
 31
0.0
  0
LINE
  8
0
 62
0
 10
93.525
 20
-6.4
 30
0.0
 11
93.525
 21
6.4
 31
0.0
  0
LINE
  8
0
 62
0
 10
92.725
 20
7.0
 30
0.0
 11
78.725
 21
7.0
 31
0.0
  0
LINE
  8
0
 62
0
 10
93.525
 20
6.4
 30
0.0
 11
92.725
 21
6.4
 31
0.0
  0
LINE
  8
0
 62
0
 10
92.725
 20
6.4
 30
0.0
 11
92.725
 21
7.0
 31
0.0
  0
LINE
  8
0
 62
0
 10
97.4875
 20
-44.5
 30
0.0
 11
98.2875
 21
-44.5
 31
0.0
  0
LINE
  8
0
 62
0
 10
98.2875
 20
-44.5
 30
0.0
 11
98.2875
 21
-31.7
 31
0.0
  0
LINE
  8
0
 62
0
 10
98.2875
 20
-31.7
 30
0.0
 11
97.4875
 21
-31.7
 31
0.0
  0
LINE
  8
0
 62
0
 10
97.4875
 20
-31.7
 30
0.0
 11
97.4875
 21
-31.1
 31
0.0
  0
LINE
  8
0
 62
0
 10
97.4875
 20
-31.1
 30
0.0
 11
83.4875
 21
-31.1
 31
0.0
  0
LINE
  8
0
 62
0
 10
83.4875
 20
-31.1
 30
0.0
 11
83.4875
 21
-31.7
 31
0.0
  0
LINE
  8
0
 62
0
 10
83.4875
 20
-31.7
 30
0.0
 11
82.6875
 21
-31.7
 31
0.0
  0
LINE
  8
0
 62
0
 10
82.6875
 20
-31.7
 30
0.0
 11
82.6875
 21
-44.5
 31
0.0
  0
LINE
  8
0
 62
0
 10
82.6875
 20
-44.5
 30
0.0
 11
83.4875
 21
-44.5
 31
0.0
  0
LINE
  8
0
 62
0
 10
83.4875
 20
-44.5
 30
0.0
 11
83.4875
 21
-45.1
 31
0.0
  0
LINE
  8
0
 62
0
 10
83.4875
 20
-45.1
 30
0.0
 11
97.4875
 21
-45.1
 31
0.0
  0
LINE
  8
0
 62
0
 10
97.4875
 20
-45.1
 30
0.0
 11
97.4875
 21
-44.5
 31
0.0
  0
LINE
  8
0
 62
0
 10
92.725
 20
-12.05
 30
0.0
 11
78.725
 21
-12.05
 31
0.0
  0
LINE
  8
0
 62
0
 10
92.725
 20
-12.65
 30
0.0
 11
92.725
 21
-12.05
 31
0.0
  0
LINE
  8
0
 62
0
 10
78.725
 20
-12.05
 30
0.0
 11
78.725
 21
-12.65
 31
0.0
  0
LINE
  8
0
 62
0
 10
93.525
 20
-12.65
 30
0.0
 11
92.725
 21
-12.65
 31
0.0
  0
LINE
  8
0
 62
0
 10
78.725
 20
-12.65
 30
0.0
 11
77.925
 21
-12.65
 31
0.0
  0
LINE
  8
0
 62
0
 10
93.525
 20
-25.45
 30
0.0
 11
93.525
 21
-12.65
 31
0.0
  0
LINE
  8
0
 62
0
 10
77.925
 20
-12.65
 30
0.0
 11
77.925
 21
-25.45
 31
0.0
  0
LINE
  8
0
 62
0
 10
92.725
 20
-25.45
 30
0.0
 11
93.525
 21
-25.45
 31
0.0
  0
LINE
  8
0
 62
0
 10
77.925
 20
-25.45
 30
0.0
 11
78.725
 21
-25.45
 31
0.0
  0
LINE
  8
0
 62
0
 10
92.725
 20
-26.05
 30
0.0
 11
92.725
 21
-25.45
 31
0.0
  0
LINE
  8
0
 62
0
 10
78.725
 20
-25.45
 30
0.0
 11
78.725
 21
-26.05
 31
0.0
  0
LINE
  8
0
 62
0
 10
78.725
 20
-26.05
 30
0.0
 11
92.725
 21
-26.05
 31
0.0
  0
LINE
  8
0
 62
0
 10
64.15
 20
-12.05
 30
0.0
 11
50.15
 21
-12.05
 31
0.0
  0
LINE
  8
0
 62
0
 10
64.15
 20
-12.65
 30
0.0
 11
64.15
 21
-12.05
 31
0.0
  0
LINE
  8
0
 62
0
 10
50.15
 20
-12.05
 30
0.0
 11
50.15
 21
-12.65
 31
0.0
  0
LINE
  8
0
 62
0
 10
64.95
 20
-12.65
 30
0.0
 11
64.15
 21
-12.65
 31
0.0
  0
LINE
  8
0
 62
0
 10
50.15
 20
-12.65
 30
0.0
 11
49.35
 21
-12.65
 31
0.0
  0
LINE
  8
0
 62
0
 10
64.95
 20
-25.45
 30
0.0
 11
64.95
 21
-12.65
 31
0.0
  0
LINE
  8
0
 62
0
 10
49.35
 20
-12.65
 30
0.0
 11
49.35
 21
-25.45
 31
0.0
  0
LINE
  8
0
 62
0
 10
64.15
 20
-25.45
 30
0.0
 11
64.95
 21
-25.45
 31
0.0
  0
LINE
  8
0
 62
0
 10
49.35
 20
-25.45
 30
0.0
 11
50.15
 21
-25.45
 31
0.0
  0
LINE
  8
0
 62
0
 10
64.15
 20
-26.05
 30
0.0
 11
64.15
 21
-25.45
 31
0.0
  0
LINE
  8
0
 62
0
 10
50.15
 20
-25.45
 30
0.0
 11
50.15
 21
-26.05
 31
0.0
  0
LINE
  8
0
 62
0
 10
50.15
 20
-26.05
 30
0.0
 11
64.15
 21
-26.05
 31
0.0
  0
LINE
  8
0
 62
0
 10
79.2375
 20
-44.5
 30
0.0
 11
79.2375
 21
-31.7
 31
0.0
  0
LINE
  8
0
 62
0
 10
78.4375
 20
-44.5
 30
0.0
 11
79.2375
 21
-44.5
 31
0.0
  0
LINE
  8
0
 62
0
 10
79.2375
 20
-31.7
 30
0.0
 11
78.4375
 21
-31.7
 31
0.0
  0
LINE
  8
0
 62
0
 10
78.4375
 20
-45.1
 30
0.0
 11
78.4375
 21
-44.5
 31
0.0
  0
LINE
  8
0
 62
0
 10
78.4375
 20
-31.7
 30
0.0
 11
78.4375
 21
-31.1
 31
0.0
  0
LINE
  8
0
 62
0
 10
64.4375
 20
-45.1
 30
0.0
 11
78.4375
 21
-45.1
 31
0.0
  0
LINE
  8
0
 62
0
 10
78.4375
 20
-31.1
 30
0.0
 11
64.4375
 21
-31.1
 31
0.0
  0
LINE
  8
0
 62
0
 10
64.4375
 20
-44.5
 30
0.0
 11
64.4375
 21
-45.1
 31
0.0
  0
LINE
  8
0
 62
0
 10
64.4375
 20
-31.1
 30
0.0
 11
64.4375
 21
-31.7
 31
0.0
  0
LINE
  8
0
 62
0
 10
63.6375
 20
-44.5
 30
0.0
 11
64.4375
 21
-44.5
 31
0.0
  0
LINE
  8
0
 62
0
 10
64.4375
 20
-31.7
 30
0.0
 11
63.6375
 21
-31.7
 31
0.0
  0
LINE
  8
0
 62
0
 10
63.6375
 20
-31.7
 30
0.0
 11
63.6375
 21
-44.5
 31
0.0
  0
LINE
  8
0
 62
0
 10
-80.30625
 20
-44.5
 30
0.0
 11
-80.30625
 21
-31.7
 31
0.0
  0
LINE
  8
0
 62
0
 10
-81.10625
 20
-44.5
 30
0.0
 11
-80.30625
 21
-44.5
 31
0.0
  0
LINE
  8
0
 62
0
 10
-80.30625
 20
-31.7
 30
0.0
 11
-81.10625
 21
-31.7
 31
0.0
  0
LINE
  8
0
 62
0
 10
-81.10625
 20
-45.1
 30
0.0
 11
-81.10625
 21
-44.5
 31
0.0
  0
LINE
  8
0
 62
0
 10
-81.10625
 20
-31.7
 30
0.0
 11
-81.10625
 21
-31.1
 31
0.0
  0
LINE
  8
0
 62
0
 10
-95.10625
 20
-45.1
 30
0.0
 11
-81.10625
 21
-45.1
 31
0.0
  0
LINE
  8
0
 62
0
 10
-81.10625
 20
-31.1
 30
0.0
 11
-95.10625
 21
-31.1
 31
0.0
  0
LINE
  8
0
 62
0
 10
-95.10625
 20
-44.5
 30
0.0
 11
-95.10625
 21
-45.1
 31
0.0
  0
LINE
  8
0
 62
0
 10
-95.10625
 20
-31.1
 30
0.0
 11
-95.10625
 21
-31.7
 31
0.0
  0
LINE
  8
0
 62
0
 10
-95.90625
 20
-44.5
 30
0.0
 11
-95.10625
 21
-44.5
 31
0.0
  0
LINE
  8
0
 62
0
 10
-95.10625
 20
-31.7
 30
0.0
 11
-95.90625
 21
-31.7
 31
0.0
  0
LINE
  8
0
 62
0
 10
-95.90625
 20
-31.7
 30
0.0
 11
-95.90625
 21
-44.5
 31
0.0
  0
LINE
  8
0
 62
0
 10
16.8125
 20
7.0
 30
0.0
 11
16.8125
 21
6.4
 31
0.0
  0
LINE
  8
0
 62
0
 10
30.8125
 20
7.0
 30
0.0
 11
16.8125
 21
7.0
 31
0.0
  0
LINE
  8
0
 62
0
 10
16.8125
 20
6.4
 30
0.0
 11
16.0125
 21
6.4
 31
0.0
  0
LINE
  8
0
 62
0
 10
30.8125
 20
6.4
 30
0.0
 11
30.8125
 21
7.0
 31
0.0
  0
LINE
  8
0
 62
0
 10
16.0125
 20
6.4
 30
0.0
 11
16.0125
 21
-6.4
 31
0.0
  0
LINE
  8
0
 62
0
 10
31.6125
 20
6.4
 30
0.0
 11
30.8125
 21
6.4
 31
0.0
  0
LINE
  8
0
 62
0
 10
16.0125
 20
-6.4
 30
0.0
 11
16.8125
 21
-6.4
 31
0.0
  0
LINE
  8
0
 62
0
 10
31.6125
 20
-6.4
 30
0.0
 11
31.6125
 21
6.4
 31
0.0
  0
LINE
  8
0
 62
0
 10
16.8125
 20
-6.4
 30
0.0
 11
16.8125
 21
-7.0
 31
0.0
  0
LINE
  8
0
 62
0
 10
30.8125
 20
-6.4
 30
0.0
 11
31.6125
 21
-6.4
 31
0.0
  0
LINE
  8
0
 62
0
 10
16.8125
 20
-7.0
 30
0.0
 11
30.8125
 21
-7.0
 31
0.0
  0
LINE
  8
0
 62
0
 10
30.8125
 20
-7.0
 30
0.0
 11
30.8125
 21
-6.4
 31
0.0
  0
LINE
  8
0
 62
0
 10
-7.2875
 20
6.4
 30
0.0
 11
-7.2875
 21
7.0
 31
0.0
  0
LINE
  8
0
 62
0
 10
-6.4875
 20
6.4
 30
0.0
 11
-7.2875
 21
6.4
 31
0.0
  0
LINE
  8
0
 62
0
 10
-7.2875
 20
7.0
 30
0.0
 11
-21.2875
 21
7.0
 31
0.0
  0
LINE
  8
0
 62
0
 10
-6.4875
 20
-6.4
 30
0.0
 11
-6.4875
 21
6.4
 31
0.0
  0
LINE
  8
0
 62
0
 10
-21.2875
 20
7.0
 30
0.0
 11
-21.2875
 21
6.4
 31
0.0
  0
LINE
  8
0
 62
0
 10
-7.2875
 20
-6.4
 30
0.0
 11
-6.4875
 21
-6.4
 31
0.0
  0
LINE
  8
0
 62
0
 10
-21.2875
 20
6.4
 30
0.0
 11
-22.0875
 21
6.4
 31
0.0
  0
LINE
  8
0
 62
0
 10
-7.2875
 20
-7.0
 30
0.0
 11
-7.2875
 21
-6.4
 31
0.0
  0
LINE
  8
0
 62
0
 10
-22.0875
 20
6.4
 30
0.0
 11
-22.0875
 21
-6.4
 31
0.0
  0
LINE
  8
0
 62
0
 10
-21.2875
 20
-7.0
 30
0.0
 11
-7.2875
 21
-7.0
 31
0.0
  0
LINE
  8
0
 62
0
 10
-22.0875
 20
-6.4
 30
0.0
 11
-21.2875
 21
-6.4
 31
0.0
  0
LINE
  8
0
 62
0
 10
-21.2875
 20
-6.4
 30
0.0
 11
-21.2875
 21
-7.0
 31
0.0
  0
LINE
  8
0
 62
0
 10
-95.10625
 20
-7.0
 30
0.0
 11
-81.10625
 21
-7.0
 31
0.0
  0
LINE
  8
0
 62
0
 10
-95.10625
 20
-6.4
 30
0.0
 11
-95.10625
 21
-7.0
 31
0.0
  0
LINE
  8
0
 62
0
 10
-81.10625
 20
-7.0
 30
0.0
 11
-81.10625
 21
-6.4
 31
0.0
  0
LINE
  8
0
 62
0
 10
-95.90625
 20
-6.4
 30
0.0
 11
-95.10625
 21
-6.4
 31
0.0
  0
LINE
  8
0
 62
0
 10
-81.10625
 20
-6.4
 30
0.0
 11
-80.30625
 21
-6.4
 31
0.0
  0
LINE
  8
0
 62
0
 10
-95.90625
 20
6.4
 30
0.0
 11
-95.90625
 21
-6.4
 31
0.0
  0
LINE
  8
0
 62
0
 10
-80.30625
 20
-6.4
 30
0.0
 11
-80.30625
 21
6.4
 31
0.0
  0
LINE
  8
0
 62
0
 10
-95.10625
 20
6.4
 30
0.0
 11
-95.90625
 21
6.4
 31
0.0
  0
LINE
  8
0
 62
0
 10
-80.30625
 20
6.4
 30
0.0
 11
-81.10625
 21
6.4
 31
0.0
  0
LINE
  8
0
 62
0
 10
-95.10625
 20
7.0
 30
0.0
 11
-95.10625
 21
6.4
 31
0.0
  0
LINE
  8
0
 62
0
 10
-81.10625
 20
6.4
 30
0.0
 11
-81.10625
 21
7.0
 31
0.0
  0
LINE
  8
0
 62
0
 10
-81.10625
 20
7.0
 30
0.0
 11
-95.10625
 21
7.0
 31
0.0
  0
LINE
  8
0
 62
0
 10
-81.10625
 20
31.1
 30
0.0
 11
-81.10625
 21
31.7
 31
0.0
  0
LINE
  8
0
 62
0
 10
-95.10625
 20
31.1
 30
0.0
 11
-81.10625
 21
31.1
 31
0.0
  0
LINE
  8
0
 62
0
 10
-81.10625
 20
31.7
 30
0.0
 11
-80.30625
 21
31.7
 31
0.0
  0
LINE
  8
0
 62
0
 10
-95.10625
 20
31.7
 30
0.0
 11
-95.10625
 21
31.1
 31
0.0
  0
LINE
  8
0
 62
0
 10
-80.30625
 20
31.7
 30
0.0
 11
-80.30625
 21
44.5
 31
0.0
  0
LINE
  8
0
 62
0
 10
-95.90625
 20
31.7
 30
0.0
 11
-95.10625
 21
31.7
 31
0.0
  0
LINE
  8
0
 62
0
 10
-80.30625
 20
44.5
 30
0.0
 11
-81.10625
 21
44.5
 31
0.0
  0
LINE
  8
0
 62
0
 10
-95.90625
 20
44.5
 30
0.0
 11
-95.90625
 21
31.7
 31
0.0
  0
LINE
  8
0
 62
0
 10
-81.10625
 20
44.5
 30
0.0
 11
-81.10625
 21
45.1
 31
0.0
  0
LINE
  8
0
 62
0
 10
-95.10625
 20
44.5
 30
0.0
 11
-95.90625
 21
44.5
 31
0.0
  0
LINE
  8
0
 62
0
 10
-81.10625
 20
45.1
 30
0.0
 11
-95.10625
 21
45.1
 31
0.0
  0
LINE
  8
0
 62
0
 10
-95.10625
 20
45.1
 30
0.0
 11
-95.10625
 21
44.5
 31
0.0
  0
LINE
  8
0
 62
0
 10
-11.7625
 20
-26.05
 30
0.0
 11
2.2375
 21
-26.05
 31
0.0
  0
LINE
  8
0
 62
0
 10
-11.7625
 20
-25.45
 30
0.0
 11
-11.7625
 21
-26.05
 31
0.0
  0
LINE
  8
0
 62
0
 10
2.2375
 20
-26.05
 30
0.0
 11
2.2375
 21
-25.45
 31
0.0
  0
LINE
  8
0
 62
0
 10
-12.5625
 20
-25.45
 30
0.0
 11
-11.7625
 21
-25.45
 31
0.0
  0
LINE
  8
0
 62
0
 10
2.2375
 20
-25.45
 30
0.0
 11
3.0375
 21
-25.45
 31
0.0
  0
LINE
  8
0
 62
0
 10
-12.5625
 20
-12.65
 30
0.0
 11
-12.5625
 21
-25.45
 31
0.0
  0
LINE
  8
0
 62
0
 10
3.0375
 20
-25.45
 30
0.0
 11
3.0375
 21
-12.65
 31
0.0
  0
LINE
  8
0
 62
0
 10
-11.7625
 20
-12.65
 30
0.0
 11
-12.5625
 21
-12.65
 31
0.0
  0
LINE
  8
0
 62
0
 10
3.0375
 20
-12.65
 30
0.0
 11
2.2375
 21
-12.65
 31
0.0
  0
LINE
  8
0
 62
0
 10
-11.7625
 20
-12.05
 30
0.0
 11
-11.7625
 21
-12.65
 31
0.0
  0
LINE
  8
0
 62
0
 10
2.2375
 20
-12.65
 30
0.0
 11
2.2375
 21
-12.05
 31
0.0
  0
LINE
  8
0
 62
0
 10
2.2375
 20
-12.05
 30
0.0
 11
-11.7625
 21
-12.05
 31
0.0
  0
CIRCLE
  8
0
 62
0
 10
34.3375
 20
50.625
 30
0.0
 40
1.5
  0
ENDBLK
  0
ENDSEC
  0
SECTION
  2
ENTITIES
  0
INSERT
  2
SHAPE
  8
0
 10
0.0
 20
0.0
 30
0.0
  0
ENDSEC
  0
EOF
