  0
SECTION
  2
HEADER
  9
$ACADVER
  1
AC1009
  9
$INSBASE
 10
0.0
 20
0.0
 30
0.0
  9
$EXTMIN
 10
0.0
 20
0.0
 30
0.0
  9
$EXTMAX
 10
0.0
 20
0.0
 30
0.0
  0
ENDSEC
  0
SECTION
  2
TABLES
  0
TABLE
  2
VPORT
 70
0
  0
ENDTAB
  0
TABLE
  2
LTYPE
 70
1
  0
LTYPE
  2
CONTINUOUS
 70
0
  3
Solid line
 72
65
 73
0
 40
0.0
  0
ENDTAB
  0
TABLE
  2
LAYER
 70
1
  0
LAYER
  2
0
 70
64
 62
7
  6
continuous
  0
ENDTAB
  0
TABLE
  2
STYLE
 70
1
  0
STYLE
  2
STANDARD
 70
0
 40
0
 41
1.0
 50
0.0
 71
0
 42
1
 3
ARIAL.TTF
 4

  0
ENDTAB
  0
TABLE
  2
VIEW
 70
0
  0
ENDTAB
  0
ENDSEC
  0
SECTION
  2
BLOCKS
  0
BLOCK
  8
0
  2
SHAPE
 70
0
 10
0.0
 20
0.0
 30
0.0
  3
SHAPE
  0
LINE
  8
0
 62
0
 10
-106.0125
 20
-53.625
 30
0.0
 11
-106.0125
 21
53.625
 31
0.0
  0
LINE
  8
0
 62
0
 10
-106.0125
 20
-53.625
 30
0.0
 11
106.0125
 21
-53.625
 31
0.0
  0
LINE
  8
0
 62
0
 10
-106.0125
 20
53.625
 30
0.0
 11
106.0125
 21
53.625
 31
0.0
  0
LINE
  8
0
 62
0
 10
106.0125
 20
-53.625
 30
0.0
 11
106.0125
 21
53.625
 31
0.0
  0
LINE
  8
0
 62
0
 10
-92.725
 20
-6.4
 30
0.0
 11
-92.725
 21
-7.0
 31
0.0
  0
LINE
  8
0
 62
0
 10
-93.525
 20
-6.4
 30
0.0
 11
-92.725
 21
-6.4
 31
0.0
  0
LINE
  8
0
 62
0
 10
-92.725
 20
-7.0
 30
0.0
 11
-78.725
 21
-7.0
 31
0.0
  0
LINE
  8
0
 62
0
 10
-93.525
 20
6.4
 30
0.0
 11
-93.525
 21
-6.4
 31
0.0
  0
LINE
  8
0
 62
0
 10
-78.725
 20
-7.0
 30
0.0
 11
-78.725
 21
-6.4
 31
0.0
  0
LINE
  8
0
 62
0
 10
-92.725
 20
6.4
 30
0.0
 11
-93.525
 21
6.4
 31
0.0
  0
LINE
  8
0
 62
0
 10
-78.725
 20
-6.4
 30
0.0
 11
-77.925
 21
-6.4
 31
0.0
  0
LINE
  8
0
 62
0
 10
-92.725
 20
7.0
 30
0.0
 11
-92.725
 21
6.4
 31
0.0
  0
LINE
  8
0
 62
0
 10
-77.925
 20
-6.4
 30
0.0
 11
-77.925
 21
6.4
 31
0.0
  0
LINE
  8
0
 62
0
 10
-78.725
 20
7.0
 30
0.0
 11
-92.725
 21
7.0
 31
0.0
  0
LINE
  8
0
 62
0
 10
-77.925
 20
6.4
 30
0.0
 11
-78.725
 21
6.4
 31
0.0
  0
LINE
  8
0
 62
0
 10
-78.725
 20
6.4
 30
0.0
 11
-78.725
 21
7.0
 31
0.0
  0
LINE
  8
0
 62
0
 10
2.2375
 20
31.7
 30
0.0
 11
3.0375
 21
31.7
 31
0.0
  0
LINE
  8
0
 62
0
 10
2.2375
 20
31.1
 30
0.0
 11
2.2375
 21
31.7
 31
0.0
  0
LINE
  8
0
 62
0
 10
3.0375
 20
31.7
 30
0.0
 11
3.0375
 21
44.5
 31
0.0
  0
LINE
  8
0
 62
0
 10
-11.7625
 20
31.1
 30
0.0
 11
2.2375
 21
31.1
 31
0.0
  0
LINE
  8
0
 62
0
 10
3.0375
 20
44.5
 30
0.0
 11
2.2375
 21
44.5
 31
0.0
  0
LINE
  8
0
 62
0
 10
-11.7625
 20
31.7
 30
0.0
 11
-11.7625
 21
31.1
 31
0.0
  0
LINE
  8
0
 62
0
 10
2.2375
 20
44.5
 30
0.0
 11
2.2375
 21
45.1
 31
0.0
  0
LINE
  8
0
 62
0
 10
-12.5625
 20
31.7
 30
0.0
 11
-11.7625
 21
31.7
 31
0.0
  0
LINE
  8
0
 62
0
 10
2.2375
 20
45.1
 30
0.0
 11
-11.7625
 21
45.1
 31
0.0
  0
LINE
  8
0
 62
0
 10
-12.5625
 20
44.5
 30
0.0
 11
-12.5625
 21
31.7
 31
0.0
  0
LINE
  8
0
 62
0
 10
-11.7625
 20
45.1
 30
0.0
 11
-11.7625
 21
44.5
 31
0.0
  0
LINE
  8
0
 62
0
 10
-11.7625
 20
44.5
 30
0.0
 11
-12.5625
 21
44.5
 31
0.0
  0
CIRCLE
  8
0
 62
0
 10
-34.3375
 20
50.625
 30
0.0
 40
1.5
  0
LINE
  8
0
 62
0
 10
30.8125
 20
26.05
 30
0.0
 11
16.8125
 21
26.05
 31
0.0
  0
LINE
  8
0
 62
0
 10
30.8125
 20
25.45
 30
0.0
 11
30.8125
 21
26.05
 31
0.0
  0
LINE
  8
0
 62
0
 10
16.8125
 20
26.05
 30
0.0
 11
16.8125
 21
25.45
 31
0.0
  0
LINE
  8
0
 62
0
 10
31.6125
 20
25.45
 30
0.0
 11
30.8125
 21
25.45
 31
0.0
  0
LINE
  8
0
 62
0
 10
16.8125
 20
25.45
 30
0.0
 11
16.0125
 21
25.45
 31
0.0
  0
LINE
  8
0
 62
0
 10
31.6125
 20
12.65
 30
0.0
 11
31.6125
 21
25.45
 31
0.0
  0
LINE
  8
0
 62
0
 10
16.0125
 20
25.45
 30
0.0
 11
16.0125
 21
12.65
 31
0.0
  0
LINE
  8
0
 62
0
 10
30.8125
 20
12.65
 30
0.0
 11
31.6125
 21
12.65
 31
0.0
  0
LINE
  8
0
 62
0
 10
16.0125
 20
12.65
 30
0.0
 11
16.8125
 21
12.65
 31
0.0
  0
LINE
  8
0
 62
0
 10
30.8125
 20
12.05
 30
0.0
 11
30.8125
 21
12.65
 31
0.0
  0
LINE
  8
0
 62
0
 10
16.8125
 20
12.65
 30
0.0
 11
16.8125
 21
12.05
 31
0.0
  0
LINE
  8
0
 62
0
 10
16.8125
 20
12.05
 30
0.0
 11
30.8125
 21
12.05
 31
0.0
  0
CIRCLE
  8
0
 62
0
 10
34.3375
 20
-50.625
 30
0.0
 40
1.5
  0
LINE
  8
0
 62
0
 10
2.525
 20
-6.4
 30
0.0
 11
2.525
 21
-7.0
 31
0.0
  0
LINE
  8
0
 62
0
 10
1.725
 20
-6.4
 30
0.0
 11
2.525
 21
-6.4
 31
0.0
  0
LINE
  8
0
 62
0
 10
2.525
 20
-7.0
 30
0.0
 11
16.525
 21
-7.0
 31
0.0
  0
LINE
  8
0
 62
0
 10
1.725
 20
6.4
 30
0.0
 11
1.725
 21
-6.4
 31
0.0
  0
LINE
  8
0
 62
0
 10
16.525
 20
-7.0
 30
0.0
 11
16.525
 21
-6.4
 31
0.0
  0
LINE
  8
0
 62
0
 10
2.525
 20
6.4
 30
0.0
 11
1.725
 21
6.4
 31
0.0
  0
LINE
  8
0
 62
0
 10
16.525
 20
-6.4
 30
0.0
 11
17.325
 21
-6.4
 31
0.0
  0
LINE
  8
0
 62
0
 10
2.525
 20
7.0
 30
0.0
 11
2.525
 21
6.4
 31
0.0
  0
LINE
  8
0
 62
0
 10
17.325
 20
-6.4
 30
0.0
 11
17.325
 21
6.4
 31
0.0
  0
LINE
  8
0
 62
0
 10
16.525
 20
7.0
 30
0.0
 11
2.525
 21
7.0
 31
0.0
  0
LINE
  8
0
 62
0
 10
17.325
 20
6.4
 30
0.0
 11
16.525
 21
6.4
 31
0.0
  0
LINE
  8
0
 62
0
 10
16.525
 20
6.4
 30
0.0
 11
16.525
 21
7.0
 31
0.0
  0
LINE
  8
0
 62
0
 10
7.8
 20
-25.45
 30
0.0
 11
7.8
 21
-12.65
 31
0.0
  0
LINE
  8
0
 62
0
 10
7.0
 20
-25.45
 30
0.0
 11
7.8
 21
-25.45
 31
0.0
  0
LINE
  8
0
 62
0
 10
7.8
 20
-12.65
 30
0.0
 11
7.0
 21
-12.65
 31
0.0
  0
LINE
  8
0
 62
0
 10
7.0
 20
-26.05
 30
0.0
 11
7.0
 21
-25.45
 31
0.0
  0
LINE
  8
0
 62
0
 10
7.0
 20
-12.65
 30
0.0
 11
7.0
 21
-12.05
 31
0.0
  0
LINE
  8
0
 62
0
 10
-7.0
 20
-26.05
 30
0.0
 11
7.0
 21
-26.05
 31
0.0
  0
LINE
  8
0
 62
0
 10
7.0
 20
-12.05
 30
0.0
 11
-7.0
 21
-12.05
 31
0.0
  0
LINE
  8
0
 62
0
 10
-7.0
 20
-25.45
 30
0.0
 11
-7.0
 21
-26.05
 31
0.0
  0
LINE
  8
0
 62
0
 10
-7.0
 20
-12.05
 30
0.0
 11
-7.0
 21
-12.65
 31
0.0
  0
LINE
  8
0
 62
0
 10
-7.8
 20
-25.45
 30
0.0
 11
-7.0
 21
-25.45
 31
0.0
  0
LINE
  8
0
 62
0
 10
-7.0
 20
-12.65
 30
0.0
 11
-7.8
 21
-12.65
 31
0.0
  0
LINE
  8
0
 62
0
 10
-7.8
 20
-12.65
 30
0.0
 11
-7.8
 21
-25.45
 31
0.0
  0
LINE
  8
0
 62
0
 10
-1.725
 20
-6.4
 30
0.0
 11
-1.725
 21
6.4
 31
0.0
  0
LINE
  8
0
 62
0
 10
-2.525
 20
-6.4
 30
0.0
 11
-1.725
 21
-6.4
 31
0.0
  0
LINE
  8
0
 62
0
 10
-1.725
 20
6.4
 30
0.0
 11
-2.525
 21
6.4
 31
0.0
  0
LINE
  8
0
 62
0
 10
-2.525
 20
-7.0
 30
0.0
 11
-2.525
 21
-6.4
 31
0.0
  0
LINE
  8
0
 62
0
 10
-2.525
 20
6.4
 30
0.0
 11
-2.525
 21
7.0
 31
0.0
  0
LINE
  8
0
 62
0
 10
-16.525
 20
-7.0
 30
0.0
 11
-2.525
 21
-7.0
 31
0.0
  0
LINE
  8
0
 62
0
 10
-2.525
 20
7.0
 30
0.0
 11
-16.525
 21
7.0
 31
0.0
  0
LINE
  8
0
 62
0
 10
-16.525
 20
-6.4
 30
0.0
 11
-16.525
 21
-7.0
 31
0.0
  0
LINE
  8
0
 62
0
 10
-16.525
 20
7.0
 30
0.0
 11
-16.525
 21
6.4
 31
0.0
  0
LINE
  8
0
 62
0
 10
-17.325
 20
-6.4
 30
0.0
 11
-16.525
 21
-6.4
 31
0.0
  0
LINE
  8
0
 62
0
 10
-16.525
 20
6.4
 30
0.0
 11
-17.325
 21
6.4
 31
0.0
  0
LINE
  8
0
 62
0
 10
-17.325
 20
6.4
 30
0.0
 11
-17.325
 21
-6.4
 31
0.0
  0
LINE
  8
0
 62
0
 10
-98.2875
 20
-31.7
 30
0.0
 11
-98.2875
 21
-44.5
 31
0.0
  0
LINE
  8
0
 62
0
 10
-97.4875
 20
-31.7
 30
0.0
 11
-98.2875
 21
-31.7
 31
0.0
  0
LINE
  8
0
 62
0
 10
-98.2875
 20
-44.5
 30
0.0
 11
-97.4875
 21
-44.5
 31
0.0
  0
LINE
  8
0
 62
0
 10
-97.4875
 20
-31.1
 30
0.0
 11
-97.4875
 21
-31.7
 31
0.0
  0
LINE
  8
0
 62
0
 10
-97.4875
 20
-44.5
 30
0.0
 11
-97.4875
 21
-45.1
 31
0.0
  0
LINE
  8
0
 62
0
 10
-83.4875
 20
-31.1
 30
0.0
 11
-97.4875
 21
-31.1
 31
0.0
  0
LINE
  8
0
 62
0
 10
-97.4875
 20
-45.1
 30
0.0
 11
-83.4875
 21
-45.1
 31
0.0
  0
LINE
  8
0
 62
0
 10
-83.4875
 20
-31.7
 30
0.0
 11
-83.4875
 21
-31.1
 31
0.0
  0
LINE
  8
0
 62
0
 10
-83.4875
 20
-45.1
 30
0.0
 11
-83.4875
 21
-44.5
 31
0.0
  0
LINE
  8
0
 62
0
 10
-82.6875
 20
-31.7
 30
0.0
 11
-83.4875
 21
-31.7
 31
0.0
  0
LINE
  8
0
 62
0
 10
-83.4875
 20
-44.5
 30
0.0
 11
-82.6875
 21
-44.5
 31
0.0
  0
LINE
  8
0
 62
0
 10
-82.6875
 20
-44.5
 30
0.0
 11
-82.6875
 21
-31.7
 31
0.0
  0
LINE
  8
0
 62
0
 10
-78.725
 20
-26.05
 30
0.0
 11
-78.725
 21
-25.45
 31
0.0
  0
LINE
  8
0
 62
0
 10
-92.725
 20
-26.05
 30
0.0
 11
-78.725
 21
-26.05
 31
0.0
  0
LINE
  8
0
 62
0
 10
-78.725
 20
-25.45
 30
0.0
 11
-77.925
 21
-25.45
 31
0.0
  0
LINE
  8
0
 62
0
 10
-92.725
 20
-25.45
 30
0.0
 11
-92.725
 21
-26.05
 31
0.0
  0
LINE
  8
0
 62
0
 10
-77.925
 20
-25.45
 30
0.0
 11
-77.925
 21
-12.65
 31
0.0
  0
LINE
  8
0
 62
0
 10
-93.525
 20
-25.45
 30
0.0
 11
-92.725
 21
-25.45
 31
0.0
  0
LINE
  8
0
 62
0
 10
-77.925
 20
-12.65
 30
0.0
 11
-78.725
 21
-12.65
 31
0.0
  0
LINE
  8
0
 62
0
 10
-93.525
 20
-12.65
 30
0.0
 11
-93.525
 21
-25.45
 31
0.0
  0
LINE
  8
0
 62
0
 10
-78.725
 20
-12.65
 30
0.0
 11
-78.725
 21
-12.05
 31
0.0
  0
LINE
  8
0
 62
0
 10
-92.725
 20
-12.65
 30
0.0
 11
-93.525
 21
-12.65
 31
0.0
  0
LINE
  8
0
 62
0
 10
-78.725
 20
-12.05
 30
0.0
 11
-92.725
 21
-12.05
 31
0.0
  0
LINE
  8
0
 62
0
 10
-92.725
 20
-12.05
 30
0.0
 11
-92.725
 21
-12.65
 31
0.0
  0
LINE
  8
0
 62
0
 10
78.4375
 20
31.1
 30
0.0
 11
78.4375
 21
31.7
 31
0.0
  0
LINE
  8
0
 62
0
 10
64.4375
 20
31.1
 30
0.0
 11
78.4375
 21
31.1
 31
0.0
  0
LINE
  8
0
 62
0
 10
78.4375
 20
31.7
 30
0.0
 11
79.2375
 21
31.7
 31
0.0
  0
LINE
  8
0
 62
0
 10
64.4375
 20
31.7
 30
0.0
 11
64.4375
 21
31.1
 31
0.0
  0
LINE
  8
0
 62
0
 10
79.2375
 20
31.7
 30
0.0
 11
79.2375
 21
44.5
 31
0.0
  0
LINE
  8
0
 62
0
 10
63.6375
 20
31.7
 30
0.0
 11
64.4375
 21
31.7
 31
0.0
  0
LINE
  8
0
 62
0
 10
79.2375
 20
44.5
 30
0.0
 11
78.4375
 21
44.5
 31
0.0
  0
LINE
  8
0
 62
0
 10
63.6375
 20
44.5
 30
0.0
 11
63.6375
 21
31.7
 31
0.0
  0
LINE
  8
0
 62
0
 10
78.4375
 20
44.5
 30
0.0
 11
78.4375
 21
45.1
 31
0.0
  0
LINE
  8
0
 62
0
 10
64.4375
 20
44.5
 30
0.0
 11
63.6375
 21
44.5
 31
0.0
  0
LINE
  8
0
 62
0
 10
78.4375
 20
45.1
 30
0.0
 11
64.4375
 21
45.1
 31
0.0
  0
LINE
  8
0
 62
0
 10
64.4375
 20
45.1
 30
0.0
 11
64.4375
 21
44.5
 31
0.0
  0
CIRCLE
  8
0
 62
0
 10
-34.3375
 20
-50.625
 30
0.0
 40
1.5
  0
LINE
  8
0
 62
0
 10
-35.0625
 20
31.7
 30
0.0
 11
-35.0625
 21
44.5
 31
0.0
  0
LINE
  8
0
 62
0
 10
-35.8625
 20
31.7
 30
0.0
 11
-35.0625
 21
31.7
 31
0.0
  0
LINE
  8
0
 62
0
 10
-35.0625
 20
44.5
 30
0.0
 11
-35.8625
 21
44.5
 31
0.0
  0
LINE
  8
0
 62
0
 10
-35.8625
 20
31.1
 30
0.0
 11
-35.8625
 21
31.7
 31
0.0
  0
LINE
  8
0
 62
0
 10
-35.8625
 20
44.5
 30
0.0
 11
-35.8625
 21
45.1
 31
0.0
  0
LINE
  8
0
 62
0
 10
-49.8625
 20
31.1
 30
0.0
 11
-35.8625
 21
31.1
 31
0.0
  0
LINE
  8
0
 62
0
 10
-35.8625
 20
45.1
 30
0.0
 11
-49.8625
 21
45.1
 31
0.0
  0
LINE
  8
0
 62
0
 10
-49.8625
 20
31.7
 30
0.0
 11
-49.8625
 21
31.1
 31
0.0
  0
LINE
  8
0
 62
0
 10
-49.8625
 20
45.1
 30
0.0
 11
-49.8625
 21
44.5
 31
0.0
  0
LINE
  8
0
 62
0
 10
-50.6625
 20
31.7
 30
0.0
 11
-49.8625
 21
31.7
 31
0.0
  0
LINE
  8
0
 62
0
 10
-49.8625
 20
44.5
 30
0.0
 11
-50.6625
 21
44.5
 31
0.0
  0
LINE
  8
0
 62
0
 10
-50.6625
 20
44.5
 30
0.0
 11
-50.6625
 21
31.7
 31
0.0
  0
LINE
  8
0
 62
0
 10
-60.1875
 20
-31.7
 30
0.0
 11
-60.1875
 21
-44.5
 31
0.0
  0
LINE
  8
0
 62
0
 10
-59.3875
 20
-31.7
 30
0.0
 11
-60.1875
 21
-31.7
 31
0.0
  0
LINE
  8
0
 62
0
 10
-60.1875
 20
-44.5
 30
0.0
 11
-59.3875
 21
-44.5
 31
0.0
  0
LINE
  8
0
 62
0
 10
-59.3875
 20
-31.1
 30
0.0
 11
-59.3875
 21
-31.7
 31
0.0
  0
LINE
  8
0
 62
0
 10
-59.3875
 20
-44.5
 30
0.0
 11
-59.3875
 21
-45.1
 31
0.0
  0
LINE
  8
0
 62
0
 10
-45.3875
 20
-31.1
 30
0.0
 11
-59.3875
 21
-31.1
 31
0.0
  0
LINE
  8
0
 62
0
 10
-59.3875
 20
-45.1
 30
0.0
 11
-45.3875
 21
-45.1
 31
0.0
  0
LINE
  8
0
 62
0
 10
-45.3875
 20
-31.7
 30
0.0
 11
-45.3875
 21
-31.1
 31
0.0
  0
LINE
  8
0
 62
0
 10
-45.3875
 20
-45.1
 30
0.0
 11
-45.3875
 21
-44.5
 31
0.0
  0
LINE
  8
0
 62
0
 10
-44.5875
 20
-31.7
 30
0.0
 11
-45.3875
 21
-31.7
 31
0.0
  0
LINE
  8
0
 62
0
 10
-45.3875
 20
-44.5
 30
0.0
 11
-44.5875
 21
-44.5
 31
0.0
  0
LINE
  8
0
 62
0
 10
-44.5875
 20
-44.5
 30
0.0
 11
-44.5875
 21
-31.7
 31
0.0
  0
LINE
  8
0
 62
0
 10
-66.53125
 20
-12.05
 30
0.0
 11
-66.53125
 21
-12.65
 31
0.0
  0
LINE
  8
0
 62
0
 10
-52.53125
 20
-12.05
 30
0.0
 11
-66.53125
 21
-12.05
 31
0.0
  0
LINE
  8
0
 62
0
 10
-66.53125
 20
-12.65
 30
0.0
 11
-67.33125
 21
-12.65
 31
0.0
  0
LINE
  8
0
 62
0
 10
-52.53125
 20
-12.65
 30
0.0
 11
-52.53125
 21
-12.05
 31
0.0
  0
LINE
  8
0
 62
0
 10
-67.33125
 20
-12.65
 30
0.0
 11
-67.33125
 21
-25.45
 31
0.0
  0
LINE
  8
0
 62
0
 10
-51.73125
 20
-12.65
 30
0.0
 11
-52.53125
 21
-12.65
 31
0.0
  0
LINE
  8
0
 62
0
 10
-67.33125
 20
-25.45
 30
0.0
 11
-66.53125
 21
-25.45
 31
0.0
  0
LINE
  8
0
 62
0
 10
-51.73125
 20
-25.45
 30
0.0
 11
-51.73125
 21
-12.65
 31
0.0
  0
LINE
  8
0
 62
0
 10
-66.53125
 20
-25.45
 30
0.0
 11
-66.53125
 21
-26.05
 31
0.0
  0
LINE
  8
0
 62
0
 10
-52.53125
 20
-25.45
 30
0.0
 11
-51.73125
 21
-25.45
 31
0.0
  0
LINE
  8
0
 62
0
 10
-66.53125
 20
-26.05
 30
0.0
 11
-52.53125
 21
-26.05
 31
0.0
  0
LINE
  8
0
 62
0
 10
-52.53125
 20
-26.05
 30
0.0
 11
-52.53125
 21
-25.45
 31
0.0
  0
CIRCLE
  8
0
 62
0
 10
-103.0125
 20
-50.625
 30
0.0
 40
1.5
  0
LINE
  8
0
 62
0
 10
-61.76875
 20
7.0
 30
0.0
 11
-61.76875
 21
6.4
 31
0.0
  0
LINE
  8
0
 62
0
 10
-47.76875
 20
7.0
 30
0.0
 11
-61.76875
 21
7.0
 31
0.0
  0
LINE
  8
0
 62
0
 10
-61.76875
 20
6.4
 30
0.0
 11
-62.56875
 21
6.4
 31
0.0
  0
LINE
  8
0
 62
0
 10
-47.76875
 20
6.4
 30
0.0
 11
-47.76875
 21
7.0
 31
0.0
  0
LINE
  8
0
 62
0
 10
-62.56875
 20
6.4
 30
0.0
 11
-62.56875
 21
-6.4
 31
0.0
  0
LINE
  8
0
 62
0
 10
-46.96875
 20
6.4
 30
0.0
 11
-47.76875
 21
6.4
 31
0.0
  0
LINE
  8
0
 62
0
 10
-62.56875
 20
-6.4
 30
0.0
 11
-61.76875
 21
-6.4
 31
0.0
  0
LINE
  8
0
 62
0
 10
-46.96875
 20
-6.4
 30
0.0
 11
-46.96875
 21
6.4
 31
0.0
  0
LINE
  8
0
 62
0
 10
-61.76875
 20
-6.4
 30
0.0
 11
-61.76875
 21
-7.0
 31
0.0
  0
LINE
  8
0
 62
0
 10
-47.76875
 20
-6.4
 30
0.0
 11
-46.96875
 21
-6.4
 31
0.0
  0
LINE
  8
0
 62
0
 10
-61.76875
 20
-7.0
 30
0.0
 11
-47.76875
 21
-7.0
 31
0.0
  0
LINE
  8
0
 62
0
 10
-47.76875
 20
-7.0
 30
0.0
 11
-47.76875
 21
-6.4
 31
0.0
  0
LINE
  8
0
 62
0
 10
12.05
 20
-26.05
 30
0.0
 11
26.05
 21
-26.05
 31
0.0
  0
LINE
  8
0
 62
0
 10
12.05
 20
-25.45
 30
0.0
 11
12.05
 21
-26.05
 31
0.0
  0
LINE
  8
0
 62
0
 10
26.05
 20
-26.05
 30
0.0
 11
26.05
 21
-25.45
 31
0.0
  0
LINE
  8
0
 62
0
 10
11.25
 20
-25.45
 30
0.0
 11
12.05
 21
-25.45
 31
0.0
  0
LINE
  8
0
 62
0
 10
26.05
 20
-25.45
 30
0.0
 11
26.85
 21
-25.45
 31
0.0
  0
LINE
  8
0
 62
0
 10
11.25
 20
-12.65
 30
0.0
 11
11.25
 21
-25.45
 31
0.0
  0
LINE
  8
0
 62
0
 10
26.85
 20
-25.45
 30
0.0
 11
26.85
 21
-12.65
 31
0.0
  0
LINE
  8
0
 62
0
 10
12.05
 20
-12.65
 30
0.0
 11
11.25
 21
-12.65
 31
0.0
  0
LINE
  8
0
 62
0
 10
26.85
 20
-12.65
 30
0.0
 11
26.05
 21
-12.65
 31
0.0
  0
LINE
  8
0
 62
0
 10
12.05
 20
-12.05
 30
0.0
 11
12.05
 21
-12.65
 31
0.0
  0
LINE
  8
0
 62
0
 10
26.05
 20
-12.65
 30
0.0
 11
26.05
 21
-12.05
 31
0.0
  0
LINE
  8
0
 62
0
 10
26.05
 20
-12.05
 30
0.0
 11
12.05
 21
-12.05
 31
0.0
  0
LINE
  8
0
 62
0
 10
-16.8125
 20
44.5
 30
0.0
 11
-16.8125
 21
45.1
 31
0.0
  0
LINE
  8
0
 62
0
 10
-16.0125
 20
44.5
 30
0.0
 11
-16.8125
 21
44.5
 31
0.0
  0
LINE
  8
0
 62
0
 10
-16.8125
 20
45.1
 30
0.0
 11
-30.8125
 21
45.1
 31
0.0
  0
LINE
  8
0
 62
0
 10
-16.0125
 20
31.7
 30
0.0
 11
-16.0125
 21
44.5
 31
0.0
  0
LINE
  8
0
 62
0
 10
-30.8125
 20
45.1
 30
0.0
 11
-30.8125
 21
44.5
 31
0.0
  0
LINE
  8
0
 62
0
 10
-16.8125
 20
31.7
 30
0.0
 11
-16.0125
 21
31.7
 31
0.0
  0
LINE
  8
0
 62
0
 10
-30.8125
 20
44.5
 30
0.0
 11
-31.6125
 21
44.5
 31
0.0
  0
LINE
  8
0
 62
0
 10
-16.8125
 20
31.1
 30
0.0
 11
-16.8125
 21
31.7
 31
0.0
  0
LINE
  8
0
 62
0
 10
-31.6125
 20
44.5
 30
0.0
 11
-31.6125
 21
31.7
 31
0.0
  0
LINE
  8
0
 62
0
 10
-30.8125
 20
31.1
 30
0.0
 11
-16.8125
 21
31.1
 31
0.0
  0
LINE
  8
0
 62
0
 10
-31.6125
 20
31.7
 30
0.0
 11
-30.8125
 21
31.7
 31
0.0
  0
LINE
  8
0
 62
0
 10
-30.8125
 20
31.7
 30
0.0
 11
-30.8125
 21
31.1
 31
0.0
  0
CIRCLE
  8
0
 62
0
 10
103.0125
 20
50.625
 30
0.0
 40
1.5
  0
LINE
  8
0
 62
0
 10
30.3
 20
-12.65
 30
0.0
 11
30.3
 21
-25.45
 31
0.0
  0
LINE
  8
0
 62
0
 10
31.1
 20
-12.65
 30
0.0
 11
30.3
 21
-12.65
 31
0.0
  0
LINE
  8
0
 62
0
 10
30.3
 20
-25.45
 30
0.0
 11
31.1
 21
-25.45
 31
0.0
  0
LINE
  8
0
 62
0
 10
31.1
 20
-12.05
 30
0.0
 11
31.1
 21
-12.65
 31
0.0
  0
LINE
  8
0
 62
0
 10
31.1
 20
-25.45
 30
0.0
 11
31.1
 21
-26.05
 31
0.0
  0
LINE
  8
0
 62
0
 10
45.1
 20
-12.05
 30
0.0
 11
31.1
 21
-12.05
 31
0.0
  0
LINE
  8
0
 62
0
 10
31.1
 20
-26.05
 30
0.0
 11
45.1
 21
-26.05
 31
0.0
  0
LINE
  8
0
 62
0
 10
45.1
 20
-12.65
 30
0.0
 11
45.1
 21
-12.05
 31
0.0
  0
LINE
  8
0
 62
0
 10
45.1
 20
-26.05
 30
0.0
 11
45.1
 21
-25.45
 31
0.0
  0
LINE
  8
0
 62
0
 10
45.9
 20
-12.65
 30
0.0
 11
45.1
 21
-12.65
 31
0.0
  0
LINE
  8
0
 62
0
 10
45.1
 20
-25.45
 30
0.0
 11
45.9
 21
-25.45
 31
0.0
  0
LINE
  8
0
 62
0
 10
45.9
 20
-25.45
 30
0.0
 11
45.9
 21
-12.65
 31
0.0
  0
LINE
  8
0
 62
0
 10
71.29375
 20
-31.1
 30
0.0
 11
57.29375
 21
-31.1
 31
0.0
  0
LINE
  8
0
 62
0
 10
71.29375
 20
-31.7
 30
0.0
 11
71.29375
 21
-31.1
 31
0.0
  0
LINE
  8
0
 62
0
 10
57.29375
 20
-31.1
 30
0.0
 11
57.29375
 21
-31.7
 31
0.0
  0
LINE
  8
0
 62
0
 10
72.09375
 20
-31.7
 30
0.0
 11
71.29375
 21
-31.7
 31
0.0
  0
LINE
  8
0
 62
0
 10
57.29375
 20
-31.7
 30
0.0
 11
56.49375
 21
-31.7
 31
0.0
  0
LINE
  8
0
 62
0
 10
72.09375
 20
-44.5
 30
0.0
 11
72.09375
 21
-31.7
 31
0.0
  0
LINE
  8
0
 62
0
 10
56.49375
 20
-31.7
 30
0.0
 11
56.49375
 21
-44.5
 31
0.0
  0
LINE
  8
0
 62
0
 10
71.29375
 20
-44.5
 30
0.0
 11
72.09375
 21
-44.5
 31
0.0
  0
LINE
  8
0
 62
0
 10
56.49375
 20
-44.5
 30
0.0
 11
57.29375
 21
-44.5
 31
0.0
  0
LINE
  8
0
 62
0
 10
71.29375
 20
-45.1
 30
0.0
 11
71.29375
 21
-44.5
 31
0.0
  0
LINE
  8
0
 62
0
 10
57.29375
 20
-44.5
 30
0.0
 11
57.29375
 21
-45.1
 31
0.0
  0
LINE
  8
0
 62
0
 10
57.29375
 20
-45.1
 30
0.0
 11
71.29375
 21
-45.1
 31
0.0
  0
LINE
  8
0
 62
0
 10
-22.0875
 20
25.45
 30
0.0
 11
-22.0875
 21
12.65
 31
0.0
  0
LINE
  8
0
 62
0
 10
-21.2875
 20
25.45
 30
0.0
 11
-22.0875
 21
25.45
 31
0.0
  0
LINE
  8
0
 62
0
 10
-22.0875
 20
12.65
 30
0.0
 11
-21.2875
 21
12.65
 31
0.0
  0
LINE
  8
0
 62
0
 10
-21.2875
 20
26.05
 30
0.0
 11
-21.2875
 21
25.45
 31
0.0
  0
LINE
  8
0
 62
0
 10
-21.2875
 20
12.65
 30
0.0
 11
-21.2875
 21
12.05
 31
0.0
  0
LINE
  8
0
 62
0
 10
-7.2875
 20
26.05
 30
0.0
 11
-21.2875
 21
26.05
 31
0.0
  0
LINE
  8
0
 62
0
 10
-21.2875
 20
12.05
 30
0.0
 11
-7.2875
 21
12.05
 31
0.0
  0
LINE
  8
0
 62
0
 10
-7.2875
 20
25.45
 30
0.0
 11
-7.2875
 21
26.05
 31
0.0
  0
LINE
  8
0
 62
0
 10
-7.2875
 20
12.05
 30
0.0
 11
-7.2875
 21
12.65
 31
0.0
  0
LINE
  8
0
 62
0
 10
-6.4875
 20
25.45
 30
0.0
 11
-7.2875
 21
25.45
 31
0.0
  0
LINE
  8
0
 62
0
 10
-7.2875
 20
12.65
 30
0.0
 11
-6.4875
 21
12.65
 31
0.0
  0
LINE
  8
0
 62
0
 10
-6.4875
 20
12.65
 30
0.0
 11
-6.4875
 21
25.45
 31
0.0
  0
CIRCLE
  8
0
 62
0
 10
-103.0125
 20
50.625
 30
0.0
 40
1.5
  0
LINE
  8
0
 62
0
 10
98.2875
 20
-12.65
 30
0.0
 11
97.4875
 21
-12.65
 31
0.0
  0
LINE
  8
0
 62
0
 10
98.2875
 20
-25.45
 30
0.0
 11
98.2875
 21
-12.65
 31
0.0
  0
LINE
  8
0
 62
0
 10
97.4875
 20
-12.65
 30
0.0
 11
97.4875
 21
-12.05
 31
0.0
  0
LINE
  8
0
 62
0
 10
97.4875
 20
-25.45
 30
0.0
 11
98.2875
 21
-25.45
 31
0.0
  0
LINE
  8
0
 62
0
 10
97.4875
 20
-12.05
 30
0.0
 11
83.4875
 21
-12.05
 31
0.0
  0
LINE
  8
0
 62
0
 10
97.4875
 20
-26.05
 30
0.0
 11
97.4875
 21
-25.45
 31
0.0
  0
LINE
  8
0
 62
0
 10
83.4875
 20
-12.05
 30
0.0
 11
83.4875
 21
-12.65
 31
0.0
  0
LINE
  8
0
 62
0
 10
83.4875
 20
-26.05
 30
0.0
 11
97.4875
 21
-26.05
 31
0.0
  0
LINE
  8
0
 62
0
 10
83.4875
 20
-12.65
 30
0.0
 11
82.6875
 21
-12.65
 31
0.0
  0
LINE
  8
0
 62
0
 10
83.4875
 20
-25.45
 30
0.0
 11
83.4875
 21
-26.05
 31
0.0
  0
LINE
  8
0
 62
0
 10
82.6875
 20
-12.65
 30
0.0
 11
82.6875
 21
-25.45
 31
0.0
  0
LINE
  8
0
 62
0
 10
82.6875
 20
-25.45
 30
0.0
 11
83.4875
 21
-25.45
 31
0.0
  0
LINE
  8
0
 62
0
 10
21.575
 20
6.4
 30
0.0
 11
20.775
 21
6.4
 31
0.0
  0
LINE
  8
0
 62
0
 10
21.575
 20
7.0
 30
0.0
 11
21.575
 21
6.4
 31
0.0
  0
LINE
  8
0
 62
0
 10
20.775
 20
6.4
 30
0.0
 11
20.775
 21
-6.4
 31
0.0
  0
LINE
  8
0
 62
0
 10
35.575
 20
7.0
 30
0.0
 11
21.575
 21
7.0
 31
0.0
  0
LINE
  8
0
 62
0
 10
20.775
 20
-6.4
 30
0.0
 11
21.575
 21
-6.4
 31
0.0
  0
LINE
  8
0
 62
0
 10
35.575
 20
6.4
 30
0.0
 11
35.575
 21
7.0
 31
0.0
  0
LINE
  8
0
 62
0
 10
21.575
 20
-6.4
 30
0.0
 11
21.575
 21
-7.0
 31
0.0
  0
LINE
  8
0
 62
0
 10
36.375
 20
6.4
 30
0.0
 11
35.575
 21
6.4
 31
0.0
  0
LINE
  8
0
 62
0
 10
21.575
 20
-7.0
 30
0.0
 11
35.575
 21
-7.0
 31
0.0
  0
LINE
  8
0
 62
0
 10
36.375
 20
-6.4
 30
0.0
 11
36.375
 21
6.4
 31
0.0
  0
LINE
  8
0
 62
0
 10
35.575
 20
-7.0
 30
0.0
 11
35.575
 21
-6.4
 31
0.0
  0
LINE
  8
0
 62
0
 10
35.575
 20
-6.4
 30
0.0
 11
36.375
 21
-6.4
 31
0.0
  0
LINE
  8
0
 62
0
 10
12.05
 20
-31.1
 30
0.0
 11
12.05
 21
-31.7
 31
0.0
  0
LINE
  8
0
 62
0
 10
26.05
 20
-31.1
 30
0.0
 11
12.05
 21
-31.1
 31
0.0
  0
LINE
  8
0
 62
0
 10
12.05
 20
-31.7
 30
0.0
 11
11.25
 21
-31.7
 31
0.0
  0
LINE
  8
0
 62
0
 10
26.05
 20
-31.7
 30
0.0
 11
26.05
 21
-31.1
 31
0.0
  0
LINE
  8
0
 62
0
 10
11.25
 20
-31.7
 30
0.0
 11
11.25
 21
-44.5
 31
0.0
  0
LINE
  8
0
 62
0
 10
26.85
 20
-31.7
 30
0.0
 11
26.05
 21
-31.7
 31
0.0
  0
LINE
  8
0
 62
0
 10
11.25
 20
-44.5
 30
0.0
 11
12.05
 21
-44.5
 31
0.0
  0
LINE
  8
0
 62
0
 10
26.85
 20
-44.5
 30
0.0
 11
26.85
 21
-31.7
 31
0.0
  0
LINE
  8
0
 62
0
 10
12.05
 20
-44.5
 30
0.0
 11
12.05
 21
-45.1
 31
0.0
  0
LINE
  8
0
 62
0
 10
26.05
 20
-44.5
 30
0.0
 11
26.85
 21
-44.5
 31
0.0
  0
LINE
  8
0
 62
0
 10
12.05
 20
-45.1
 30
0.0
 11
26.05
 21
-45.1
 31
0.0
  0
LINE
  8
0
 62
0
 10
26.05
 20
-45.1
 30
0.0
 11
26.05
 21
-44.5
 31
0.0
  0
LINE
  8
0
 62
0
 10
-11.25
 20
-25.45
 30
0.0
 11
-11.25
 21
-12.65
 31
0.0
  0
LINE
  8
0
 62
0
 10
-12.05
 20
-25.45
 30
0.0
 11
-11.25
 21
-25.45
 31
0.0
  0
LINE
  8
0
 62
0
 10
-11.25
 20
-12.65
 30
0.0
 11
-12.05
 21
-12.65
 31
0.0
  0
LINE
  8
0
 62
0
 10
-12.05
 20
-26.05
 30
0.0
 11
-12.05
 21
-25.45
 31
0.0
  0
LINE
  8
0
 62
0
 10
-12.05
 20
-12.65
 30
0.0
 11
-12.05
 21
-12.05
 31
0.0
  0
LINE
  8
0
 62
0
 10
-26.05
 20
-26.05
 30
0.0
 11
-12.05
 21
-26.05
 31
0.0
  0
LINE
  8
0
 62
0
 10
-12.05
 20
-12.05
 30
0.0
 11
-26.05
 21
-12.05
 31
0.0
  0
LINE
  8
0
 62
0
 10
-26.05
 20
-25.45
 30
0.0
 11
-26.05
 21
-26.05
 31
0.0
  0
LINE
  8
0
 62
0
 10
-26.05
 20
-12.05
 30
0.0
 11
-26.05
 21
-12.65
 31
0.0
  0
LINE
  8
0
 62
0
 10
-26.85
 20
-25.45
 30
0.0
 11
-26.05
 21
-25.45
 31
0.0
  0
LINE
  8
0
 62
0
 10
-26.05
 20
-12.65
 30
0.0
 11
-26.85
 21
-12.65
 31
0.0
  0
LINE
  8
0
 62
0
 10
-26.85
 20
-12.65
 30
0.0
 11
-26.85
 21
-25.45
 31
0.0
  0
LINE
  8
0
 62
0
 10
77.925
 20
25.45
 30
0.0
 11
77.925
 21
12.65
 31
0.0
  0
LINE
  8
0
 62
0
 10
78.725
 20
25.45
 30
0.0
 11
77.925
 21
25.45
 31
0.0
  0
LINE
  8
0
 62
0
 10
77.925
 20
12.65
 30
0.0
 11
78.725
 21
12.65
 31
0.0
  0
LINE
  8
0
 62
0
 10
78.725
 20
26.05
 30
0.0
 11
78.725
 21
25.45
 31
0.0
  0
LINE
  8
0
 62
0
 10
78.725
 20
12.65
 30
0.0
 11
78.725
 21
12.05
 31
0.0
  0
LINE
  8
0
 62
0
 10
92.725
 20
26.05
 30
0.0
 11
78.725
 21
26.05
 31
0.0
  0
LINE
  8
0
 62
0
 10
78.725
 20
12.05
 30
0.0
 11
92.725
 21
12.05
 31
0.0
  0
LINE
  8
0
 62
0
 10
92.725
 20
25.45
 30
0.0
 11
92.725
 21
26.05
 31
0.0
  0
LINE
  8
0
 62
0
 10
92.725
 20
12.05
 30
0.0
 11
92.725
 21
12.65
 31
0.0
  0
LINE
  8
0
 62
0
 10
93.525
 20
25.45
 30
0.0
 11
92.725
 21
25.45
 31
0.0
  0
LINE
  8
0
 62
0
 10
92.725
 20
12.65
 30
0.0
 11
93.525
 21
12.65
 31
0.0
  0
LINE
  8
0
 62
0
 10
93.525
 20
12.65
 30
0.0
 11
93.525
 21
25.45
 31
0.0
  0
LINE
  8
0
 62
0
 10
-2.2375
 20
12.05
 30
0.0
 11
11.7625
 21
12.05
 31
0.0
  0
LINE
  8
0
 62
0
 10
-2.2375
 20
12.65
 30
0.0
 11
-2.2375
 21
12.05
 31
0.0
  0
LINE
  8
0
 62
0
 10
11.7625
 20
12.05
 30
0.0
 11
11.7625
 21
12.65
 31
0.0
  0
LINE
  8
0
 62
0
 10
-3.0375
 20
12.65
 30
0.0
 11
-2.2375
 21
12.65
 31
0.0
  0
LINE
  8
0
 62
0
 10
11.7625
 20
12.65
 30
0.0
 11
12.5625
 21
12.65
 31
0.0
  0
LINE
  8
0
 62
0
 10
-3.0375
 20
25.45
 30
0.0
 11
-3.0375
 21
12.65
 31
0.0
  0
LINE
  8
0
 62
0
 10
12.5625
 20
12.65
 30
0.0
 11
12.5625
 21
25.45
 31
0.0
  0
LINE
  8
0
 62
0
 10
-2.2375
 20
25.45
 30
0.0
 11
-3.0375
 21
25.45
 31
0.0
  0
LINE
  8
0
 62
0
 10
12.5625
 20
25.45
 30
0.0
 11
11.7625
 21
25.45
 31
0.0
  0
LINE
  8
0
 62
0
 10
-2.2375
 20
26.05
 30
0.0
 11
-2.2375
 21
25.45
 31
0.0
  0
LINE
  8
0
 62
0
 10
11.7625
 20
25.45
 30
0.0
 11
11.7625
 21
26.05
 31
0.0
  0
LINE
  8
0
 62
0
 10
11.7625
 20
26.05
 30
0.0
 11
-2.2375
 21
26.05
 31
0.0
  0
LINE
  8
0
 62
0
 10
21.2875
 20
45.1
 30
0.0
 11
7.2875
 21
45.1
 31
0.0
  0
LINE
  8
0
 62
0
 10
21.2875
 20
44.5
 30
0.0
 11
21.2875
 21
45.1
 31
0.0
  0
LINE
  8
0
 62
0
 10
7.2875
 20
45.1
 30
0.0
 11
7.2875
 21
44.5
 31
0.0
  0
LINE
  8
0
 62
0
 10
22.0875
 20
44.5
 30
0.0
 11
21.2875
 21
44.5
 31
0.0
  0
LINE
  8
0
 62
0
 10
7.2875
 20
44.5
 30
0.0
 11
6.4875
 21
44.5
 31
0.0
  0
LINE
  8
0
 62
0
 10
22.0875
 20
31.7
 30
0.0
 11
22.0875
 21
44.5
 31
0.0
  0
LINE
  8
0
 62
0
 10
6.4875
 20
44.5
 30
0.0
 11
6.4875
 21
31.7
 31
0.0
  0
LINE
  8
0
 62
0
 10
21.2875
 20
31.7
 30
0.0
 11
22.0875
 21
31.7
 31
0.0
  0
LINE
  8
0
 62
0
 10
6.4875
 20
31.7
 30
0.0
 11
7.2875
 21
31.7
 31
0.0
  0
LINE
  8
0
 62
0
 10
21.2875
 20
31.1
 30
0.0
 11
21.2875
 21
31.7
 31
0.0
  0
LINE
  8
0
 62
0
 10
7.2875
 20
31.7
 30
0.0
 11
7.2875
 21
31.1
 31
0.0
  0
LINE
  8
0
 62
0
 10
7.2875
 20
31.1
 30
0.0
 11
21.2875
 21
31.1
 31
0.0
  0
LINE
  8
0
 62
0
 10
82.6875
 20
44.5
 30
0.0
 11
82.6875
 21
31.7
 31
0.0
  0
LINE
  8
0
 62
0
 10
83.4875
 20
44.5
 30
0.0
 11
82.6875
 21
44.5
 31
0.0
  0
LINE
  8
0
 62
0
 10
82.6875
 20
31.7
 30
0.0
 11
83.4875
 21
31.7
 31
0.0
  0
LINE
  8
0
 62
0
 10
83.4875
 20
45.1
 30
0.0
 11
83.4875
 21
44.5
 31
0.0
  0
LINE
  8
0
 62
0
 10
83.4875
 20
31.7
 30
0.0
 11
83.4875
 21
31.1
 31
0.0
  0
LINE
  8
0
 62
0
 10
97.4875
 20
45.1
 30
0.0
 11
83.4875
 21
45.1
 31
0.0
  0
LINE
  8
0
 62
0
 10
83.4875
 20
31.1
 30
0.0
 11
97.4875
 21
31.1
 31
0.0
  0
LINE
  8
0
 62
0
 10
97.4875
 20
44.5
 30
0.0
 11
97.4875
 21
45.1
 31
0.0
  0
LINE
  8
0
 62
0
 10
97.4875
 20
31.1
 30
0.0
 11
97.4875
 21
31.7
 31
0.0
  0
LINE
  8
0
 62
0
 10
98.2875
 20
44.5
 30
0.0
 11
97.4875
 21
44.5
 31
0.0
  0
LINE
  8
0
 62
0
 10
97.4875
 20
31.7
 30
0.0
 11
98.2875
 21
31.7
 31
0.0
  0
LINE
  8
0
 62
0
 10
98.2875
 20
31.7
 30
0.0
 11
98.2875
 21
44.5
 31
0.0
  0
LINE
  8
0
 62
0
 10
26.3375
 20
31.1
 30
0.0
 11
40.3375
 21
31.1
 31
0.0
  0
LINE
  8
0
 62
0
 10
26.3375
 20
31.7
 30
0.0
 11
26.3375
 21
31.1
 31
0.0
  0
LINE
  8
0
 62
0
 10
40.3375
 20
31.1
 30
0.0
 11
40.3375
 21
31.7
 31
0.0
  0
LINE
  8
0
 62
0
 10
25.5375
 20
31.7
 30
0.0
 11
26.3375
 21
31.7
 31
0.0
  0
LINE
  8
0
 62
0
 10
40.3375
 20
31.7
 30
0.0
 11
41.1375
 21
31.7
 31
0.0
  0
LINE
  8
0
 62
0
 10
25.5375
 20
44.5
 30
0.0
 11
25.5375
 21
31.7
 31
0.0
  0
LINE
  8
0
 62
0
 10
41.1375
 20
31.7
 30
0.0
 11
41.1375
 21
44.5
 31
0.0
  0
LINE
  8
0
 62
0
 10
26.3375
 20
44.5
 30
0.0
 11
25.5375
 21
44.5
 31
0.0
  0
LINE
  8
0
 62
0
 10
41.1375
 20
44.5
 30
0.0
 11
40.3375
 21
44.5
 31
0.0
  0
LINE
  8
0
 62
0
 10
26.3375
 20
45.1
 30
0.0
 11
26.3375
 21
44.5
 31
0.0
  0
LINE
  8
0
 62
0
 10
40.3375
 20
44.5
 30
0.0
 11
40.3375
 21
45.1
 31
0.0
  0
LINE
  8
0
 62
0
 10
40.3375
 20
45.1
 30
0.0
 11
26.3375
 21
45.1
 31
0.0
  0
LINE
  8
0
 62
0
 10
47.48125
 20
-44.5
 30
0.0
 11
48.28125
 21
-44.5
 31
0.0
  0
LINE
  8
0
 62
0
 10
47.48125
 20
-45.1
 30
0.0
 11
47.48125
 21
-44.5
 31
0.0
  0
LINE
  8
0
 62
0
 10
48.28125
 20
-44.5
 30
0.0
 11
48.28125
 21
-31.7
 31
0.0
  0
LINE
  8
0
 62
0
 10
33.48125
 20
-45.1
 30
0.0
 11
47.48125
 21
-45.1
 31
0.0
  0
LINE
  8
0
 62
0
 10
48.28125
 20
-31.7
 30
0.0
 11
47.48125
 21
-31.7
 31
0.0
  0
LINE
  8
0
 62
0
 10
33.48125
 20
-44.5
 30
0.0
 11
33.48125
 21
-45.1
 31
0.0
  0
LINE
  8
0
 62
0
 10
47.48125
 20
-31.7
 30
0.0
 11
47.48125
 21
-31.1
 31
0.0
  0
LINE
  8
0
 62
0
 10
32.68125
 20
-44.5
 30
0.0
 11
33.48125
 21
-44.5
 31
0.0
  0
LINE
  8
0
 62
0
 10
47.48125
 20
-31.1
 30
0.0
 11
33.48125
 21
-31.1
 31
0.0
  0
LINE
  8
0
 62
0
 10
32.68125
 20
-31.7
 30
0.0
 11
32.68125
 21
-44.5
 31
0.0
  0
LINE
  8
0
 62
0
 10
33.48125
 20
-31.1
 30
0.0
 11
33.48125
 21
-31.7
 31
0.0
  0
LINE
  8
0
 62
0
 10
33.48125
 20
-31.7
 30
0.0
 11
32.68125
 21
-31.7
 31
0.0
  0
LINE
  8
0
 62
0
 10
-49.35
 20
25.45
 30
0.0
 11
-50.15
 21
25.45
 31
0.0
  0
LINE
  8
0
 62
0
 10
-49.35
 20
12.65
 30
0.0
 11
-49.35
 21
25.45
 31
0.0
  0
LINE
  8
0
 62
0
 10
-50.15
 20
25.45
 30
0.0
 11
-50.15
 21
26.05
 31
0.0
  0
LINE
  8
0
 62
0
 10
-50.15
 20
12.65
 30
0.0
 11
-49.35
 21
12.65
 31
0.0
  0
LINE
  8
0
 62
0
 10
-50.15
 20
26.05
 30
0.0
 11
-64.15
 21
26.05
 31
0.0
  0
LINE
  8
0
 62
0
 10
-50.15
 20
12.05
 30
0.0
 11
-50.15
 21
12.65
 31
0.0
  0
LINE
  8
0
 62
0
 10
-64.15
 20
26.05
 30
0.0
 11
-64.15
 21
25.45
 31
0.0
  0
LINE
  8
0
 62
0
 10
-64.15
 20
12.05
 30
0.0
 11
-50.15
 21
12.05
 31
0.0
  0
LINE
  8
0
 62
0
 10
-64.15
 20
25.45
 30
0.0
 11
-64.95
 21
25.45
 31
0.0
  0
LINE
  8
0
 62
0
 10
-64.15
 20
12.65
 30
0.0
 11
-64.15
 21
12.05
 31
0.0
  0
LINE
  8
0
 62
0
 10
-64.95
 20
25.45
 30
0.0
 11
-64.95
 21
12.65
 31
0.0
  0
LINE
  8
0
 62
0
 10
-64.95
 20
12.65
 30
0.0
 11
-64.15
 21
12.65
 31
0.0
  0
LINE
  8
0
 62
0
 10
-63.6375
 20
-44.5
 30
0.0
 11
-63.6375
 21
-31.7
 31
0.0
  0
LINE
  8
0
 62
0
 10
-64.4375
 20
-44.5
 30
0.0
 11
-63.6375
 21
-44.5
 31
0.0
  0
LINE
  8
0
 62
0
 10
-63.6375
 20
-31.7
 30
0.0
 11
-64.4375
 21
-31.7
 31
0.0
  0
LINE
  8
0
 62
0
 10
-64.4375
 20
-45.1
 30
0.0
 11
-64.4375
 21
-44.5
 31
0.0
  0
LINE
  8
0
 62
0
 10
-64.4375
 20
-31.7
 30
0.0
 11
-64.4375
 21
-31.1
 31
0.0
  0
LINE
  8
0
 62
0
 10
-78.4375
 20
-45.1
 30
0.0
 11
-64.4375
 21
-45.1
 31
0.0
  0
LINE
  8
0
 62
0
 10
-64.4375
 20
-31.1
 30
0.0
 11
-78.4375
 21
-31.1
 31
0.0
  0
LINE
  8
0
 62
0
 10
-78.4375
 20
-44.5
 30
0.0
 11
-78.4375
 21
-45.1
 31
0.0
  0
LINE
  8
0
 62
0
 10
-78.4375
 20
-31.1
 30
0.0
 11
-78.4375
 21
-31.7
 31
0.0
  0
LINE
  8
0
 62
0
 10
-79.2375
 20
-44.5
 30
0.0
 11
-78.4375
 21
-44.5
 31
0.0
  0
LINE
  8
0
 62
0
 10
-78.4375
 20
-31.7
 30
0.0
 11
-79.2375
 21
-31.7
 31
0.0
  0
LINE
  8
0
 62
0
 10
-79.2375
 20
-31.7
 30
0.0
 11
-79.2375
 21
-44.5
 31
0.0
  0
LINE
  8
0
 62
0
 10
71.29375
 20
-12.65
 30
0.0
 11
71.29375
 21
-12.05
 31
0.0
  0
LINE
  8
0
 62
0
 10
72.09375
 20
-12.65
 30
0.0
 11
71.29375
 21
-12.65
 31
0.0
  0
LINE
  8
0
 62
0
 10
71.29375
 20
-12.05
 30
0.0
 11
57.29375
 21
-12.05
 31
0.0
  0
LINE
  8
0
 62
0
 10
72.09375
 20
-25.45
 30
0.0
 11
72.09375
 21
-12.65
 31
0.0
  0
LINE
  8
0
 62
0
 10
57.29375
 20
-12.05
 30
0.0
 11
57.29375
 21
-12.65
 31
0.0
  0
LINE
  8
0
 62
0
 10
71.29375
 20
-25.45
 30
0.0
 11
72.09375
 21
-25.45
 31
0.0
  0
LINE
  8
0
 62
0
 10
57.29375
 20
-12.65
 30
0.0
 11
56.49375
 21
-12.65
 31
0.0
  0
LINE
  8
0
 62
0
 10
71.29375
 20
-26.05
 30
0.0
 11
71.29375
 21
-25.45
 31
0.0
  0
LINE
  8
0
 62
0
 10
56.49375
 20
-12.65
 30
0.0
 11
56.49375
 21
-25.45
 31
0.0
  0
LINE
  8
0
 62
0
 10
57.29375
 20
-26.05
 30
0.0
 11
71.29375
 21
-26.05
 31
0.0
  0
LINE
  8
0
 62
0
 10
56.49375
 20
-25.45
 30
0.0
 11
57.29375
 21
-25.45
 31
0.0
  0
LINE
  8
0
 62
0
 10
57.29375
 20
-25.45
 30
0.0
 11
57.29375
 21
-26.05
 31
0.0
  0
LINE
  8
0
 62
0
 10
-25.5375
 20
12.65
 30
0.0
 11
-25.5375
 21
25.45
 31
0.0
  0
LINE
  8
0
 62
0
 10
-26.3375
 20
12.65
 30
0.0
 11
-25.5375
 21
12.65
 31
0.0
  0
LINE
  8
0
 62
0
 10
-25.5375
 20
25.45
 30
0.0
 11
-26.3375
 21
25.45
 31
0.0
  0
LINE
  8
0
 62
0
 10
-26.3375
 20
12.05
 30
0.0
 11
-26.3375
 21
12.65
 31
0.0
  0
LINE
  8
0
 62
0
 10
-26.3375
 20
25.45
 30
0.0
 11
-26.3375
 21
26.05
 31
0.0
  0
LINE
  8
0
 62
0
 10
-40.3375
 20
12.05
 30
0.0
 11
-26.3375
 21
12.05
 31
0.0
  0
LINE
  8
0
 62
0
 10
-26.3375
 20
26.05
 30
0.0
 11
-40.3375
 21
26.05
 31
0.0
  0
LINE
  8
0
 62
0
 10
-40.3375
 20
12.65
 30
0.0
 11
-40.3375
 21
12.05
 31
0.0
  0
LINE
  8
0
 62
0
 10
-40.3375
 20
26.05
 30
0.0
 11
-40.3375
 21
25.45
 31
0.0
  0
LINE
  8
0
 62
0
 10
-41.1375
 20
12.65
 30
0.0
 11
-40.3375
 21
12.65
 31
0.0
  0
LINE
  8
0
 62
0
 10
-40.3375
 20
25.45
 30
0.0
 11
-41.1375
 21
25.45
 31
0.0
  0
LINE
  8
0
 62
0
 10
-41.1375
 20
25.45
 30
0.0
 11
-41.1375
 21
12.65
 31
0.0
  0
CIRCLE
  8
0
 62
0
 10
34.3375
 20
50.625
 30
0.0
 40
1.5
  0
LINE
  8
0
 62
0
 10
54.625
 20
7.0
 30
0.0
 11
40.625
 21
7.0
 31
0.0
  0
LINE
  8
0
 62
0
 10
54.625
 20
6.4
 30
0.0
 11
54.625
 21
7.0
 31
0.0
  0
LINE
  8
0
 62
0
 10
40.625
 20
7.0
 30
0.0
 11
40.625
 21
6.4
 31
0.0
  0
LINE
  8
0
 62
0
 10
55.425
 20
6.4
 30
0.0
 11
54.625
 21
6.4
 31
0.0
  0
LINE
  8
0
 62
0
 10
40.625
 20
6.4
 30
0.0
 11
39.825
 21
6.4
 31
0.0
  0
LINE
  8
0
 62
0
 10
55.425
 20
-6.4
 30
0.0
 11
55.425
 21
6.4
 31
0.0
  0
LINE
  8
0
 62
0
 10
39.825
 20
6.4
 30
0.0
 11
39.825
 21
-6.4
 31
0.0
  0
LINE
  8
0
 62
0
 10
54.625
 20
-6.4
 30
0.0
 11
55.425
 21
-6.4
 31
0.0
  0
LINE
  8
0
 62
0
 10
39.825
 20
-6.4
 30
0.0
 11
40.625
 21
-6.4
 31
0.0
  0
LINE
  8
0
 62
0
 10
54.625
 20
-7.0
 30
0.0
 11
54.625
 21
-6.4
 31
0.0
  0
LINE
  8
0
 62
0
 10
40.625
 20
-6.4
 30
0.0
 11
40.625
 21
-7.0
 31
0.0
  0
LINE
  8
0
 62
0
 10
40.625
 20
-7.0
 30
0.0
 11
54.625
 21
-7.0
 31
0.0
  0
LINE
  8
0
 62
0
 10
-23.66875
 20
-44.5
 30
0.0
 11
-23.66875
 21
-45.1
 31
0.0
  0
LINE
  8
0
 62
0
 10
-24.46875
 20
-44.5
 30
0.0
 11
-23.66875
 21
-44.5
 31
0.0
  0
LINE
  8
0
 62
0
 10
-23.66875
 20
-45.1
 30
0.0
 11
-9.66875
 21
-45.1
 31
0.0
  0
LINE
  8
0
 62
0
 10
-24.46875
 20
-44.07
 30
0.0
 11
-24.46875
 21
-44.5
 31
0.0
  0
LINE
  8
0
 62
0
 10
-9.66875
 20
-45.1
 30
0.0
 11
-9.66875
 21
-44.5
 31
0.0
  0
LINE
  8
0
 62
0
 10
-25.24375
 20
-44.07
 30
0.0
 11
-24.46875
 21
-44.07
 31
0.0
  0
LINE
  8
0
 62
0
 10
-9.66875
 20
-44.5
 30
0.0
 11
-8.86875
 21
-44.5
 31
0.0
  0
LINE
  8
0
 62
0
 10
-25.24375
 20
-44.87
 30
0.0
 11
-25.24375
 21
-44.07
 31
0.0
  0
LINE
  8
0
 62
0
 10
-8.86875
 20
-44.5
 30
0.0
 11
-8.86875
 21
-44.07
 31
0.0
  0
LINE
  8
0
 62
0
 10
-26.96875
 20
-44.87
 30
0.0
 11
-25.24375
 21
-44.87
 31
0.0
  0
LINE
  8
0
 62
0
 10
-8.86875
 20
-44.07
 30
0.0
 11
-8.09375
 21
-44.07
 31
0.0
  0
LINE
  8
0
 62
0
 10
-26.96875
 20
-45.85
 30
0.0
 11
-26.96875
 21
-44.87
 31
0.0
  0
LINE
  8
0
 62
0
 10
-8.09375
 20
-44.07
 30
0.0
 11
-8.09375
 21
-44.87
 31
0.0
  0
LINE
  8
0
 62
0
 10
-30.26875
 20
-45.85
 30
0.0
 11
-26.96875
 21
-45.85
 31
0.0
  0
LINE
  8
0
 62
0
 10
-8.09375
 20
-44.87
 30
0.0
 11
-6.36875
 21
-44.87
 31
0.0
  0
LINE
  8
0
 62
0
 10
-30.26875
 20
-44.87
 30
0.0
 11
-30.26875
 21
-45.85
 31
0.0
  0
LINE
  8
0
 62
0
 10
-6.36875
 20
-44.87
 30
0.0
 11
-6.36875
 21
-45.85
 31
0.0
  0
LINE
  8
0
 62
0
 10
-31.89375
 20
-44.87
 30
0.0
 11
-30.26875
 21
-44.87
 31
0.0
  0
LINE
  8
0
 62
0
 10
-6.36875
 20
-45.85
 30
0.0
 11
-3.06875
 21
-45.85
 31
0.0
  0
LINE
  8
0
 62
0
 10
-31.89375
 20
-38.6
 30
0.0
 11
-31.89375
 21
-44.87
 31
0.0
  0
LINE
  8
0
 62
0
 10
-3.06875
 20
-45.85
 30
0.0
 11
-3.06875
 21
-44.87
 31
0.0
  0
LINE
  8
0
 62
0
 10
-32.76875
 20
-38.6
 30
0.0
 11
-31.89375
 21
-38.6
 31
0.0
  0
LINE
  8
0
 62
0
 10
-3.06875
 20
-44.87
 30
0.0
 11
-1.44375
 21
-44.87
 31
0.0
  0
LINE
  8
0
 62
0
 10
-32.76875
 20
-35.8
 30
0.0
 11
-32.76875
 21
-38.6
 31
0.0
  0
LINE
  8
0
 62
0
 10
-1.44375
 20
-44.87
 30
0.0
 11
-1.44375
 21
-38.6
 31
0.0
  0
LINE
  8
0
 62
0
 10
-31.89375
 20
-35.8
 30
0.0
 11
-32.76875
 21
-35.8
 31
0.0
  0
LINE
  8
0
 62
0
 10
-1.44375
 20
-38.6
 30
0.0
 11
-0.56875
 21
-38.6
 31
0.0
  0
LINE
  8
0
 62
0
 10
-31.89375
 20
-32.57
 30
0.0
 11
-31.89375
 21
-35.8
 31
0.0
  0
LINE
  8
0
 62
0
 10
-0.56875
 20
-38.6
 30
0.0
 11
-0.56875
 21
-35.8
 31
0.0
  0
LINE
  8
0
 62
0
 10
-30.26875
 20
-32.57
 30
0.0
 11
-31.89375
 21
-32.57
 31
0.0
  0
LINE
  8
0
 62
0
 10
-0.56875
 20
-35.8
 30
0.0
 11
-1.44375
 21
-35.8
 31
0.0
  0
LINE
  8
0
 62
0
 10
-30.26875
 20
-31.7
 30
0.0
 11
-30.26875
 21
-32.57
 31
0.0
  0
LINE
  8
0
 62
0
 10
-1.44375
 20
-35.8
 30
0.0
 11
-1.44375
 21
-32.57
 31
0.0
  0
LINE
  8
0
 62
0
 10
-26.96875
 20
-31.7
 30
0.0
 11
-30.26875
 21
-31.7
 31
0.0
  0
LINE
  8
0
 62
0
 10
-1.44375
 20
-32.57
 30
0.0
 11
-3.06875
 21
-32.57
 31
0.0
  0
LINE
  8
0
 62
0
 10
-26.96875
 20
-32.57
 30
0.0
 11
-26.96875
 21
-31.7
 31
0.0
  0
LINE
  8
0
 62
0
 10
-3.06875
 20
-32.57
 30
0.0
 11
-3.06875
 21
-31.7
 31
0.0
  0
LINE
  8
0
 62
0
 10
-25.24375
 20
-32.57
 30
0.0
 11
-26.96875
 21
-32.57
 31
0.0
  0
LINE
  8
0
 62
0
 10
-3.06875
 20
-31.7
 30
0.0
 11
-6.36875
 21
-31.7
 31
0.0
  0
LINE
  8
0
 62
0
 10
-25.24375
 20
-33.37
 30
0.0
 11
-25.24375
 21
-32.57
 31
0.0
  0
LINE
  8
0
 62
0
 10
-6.36875
 20
-31.7
 30
0.0
 11
-6.36875
 21
-32.57
 31
0.0
  0
LINE
  8
0
 62
0
 10
-24.46875
 20
-33.37
 30
0.0
 11
-25.24375
 21
-33.37
 31
0.0
  0
LINE
  8
0
 62
0
 10
-6.36875
 20
-32.57
 30
0.0
 11
-8.09375
 21
-32.57
 31
0.0
  0
LINE
  8
0
 62
0
 10
-24.46875
 20
-31.7
 30
0.0
 11
-24.46875
 21
-33.37
 31
0.0
  0
LINE
  8
0
 62
0
 10
-8.09375
 20
-32.57
 30
0.0
 11
-8.09375
 21
-33.37
 31
0.0
  0
LINE
  8
0
 62
0
 10
-23.66875
 20
-31.7
 30
0.0
 11
-24.46875
 21
-31.7
 31
0.0
  0
LINE
  8
0
 62
0
 10
-8.09375
 20
-33.37
 30
0.0
 11
-8.86875
 21
-33.37
 31
0.0
  0
LINE
  8
0
 62
0
 10
-23.66875
 20
-31.1
 30
0.0
 11
-23.66875
 21
-31.7
 31
0.0
  0
LINE
  8
0
 62
0
 10
-8.86875
 20
-33.37
 30
0.0
 11
-8.86875
 21
-31.7
 31
0.0
  0
LINE
  8
0
 62
0
 10
-9.66875
 20
-31.1
 30
0.0
 11
-23.66875
 21
-31.1
 31
0.0
  0
LINE
  8
0
 62
0
 10
-8.86875
 20
-31.7
 30
0.0
 11
-9.66875
 21
-31.7
 31
0.0
  0
LINE
  8
0
 62
0
 10
-9.66875
 20
-31.7
 30
0.0
 11
-9.66875
 21
-31.1
 31
0.0
  0
LINE
  8
0
 62
0
 10
85.58125
 20
-7.0
 30
0.0
 11
85.58125
 21
-6.4
 31
0.0
  0
LINE
  8
0
 62
0
 10
71.58125
 20
-7.0
 30
0.0
 11
85.58125
 21
-7.0
 31
0.0
  0
LINE
  8
0
 62
0
 10
85.58125
 20
-6.4
 30
0.0
 11
86.38125
 21
-6.4
 31
0.0
  0
LINE
  8
0
 62
0
 10
71.58125
 20
-6.4
 30
0.0
 11
71.58125
 21
-7.0
 31
0.0
  0
LINE
  8
0
 62
0
 10
86.38125
 20
-6.4
 30
0.0
 11
86.38125
 21
-5.97
 31
0.0
  0
LINE
  8
0
 62
0
 10
70.78125
 20
-6.4
 30
0.0
 11
71.58125
 21
-6.4
 31
0.0
  0
LINE
  8
0
 62
0
 10
86.38125
 20
-5.97
 30
0.0
 11
87.15625
 21
-5.97
 31
0.0
  0
LINE
  8
0
 62
0
 10
70.78125
 20
-5.97
 30
0.0
 11
70.78125
 21
-6.4
 31
0.0
  0
LINE
  8
0
 62
0
 10
87.15625
 20
-5.97
 30
0.0
 11
87.15625
 21
-6.77
 31
0.0
  0
LINE
  8
0
 62
0
 10
70.00625
 20
-5.97
 30
0.0
 11
70.78125
 21
-5.97
 31
0.0
  0
LINE
  8
0
 62
0
 10
87.15625
 20
-6.77
 30
0.0
 11
88.88125
 21
-6.77
 31
0.0
  0
LINE
  8
0
 62
0
 10
70.00625
 20
-6.77
 30
0.0
 11
70.00625
 21
-5.97
 31
0.0
  0
LINE
  8
0
 62
0
 10
88.88125
 20
-6.77
 30
0.0
 11
88.88125
 21
-7.75
 31
0.0
  0
LINE
  8
0
 62
0
 10
68.28125
 20
-6.77
 30
0.0
 11
70.00625
 21
-6.77
 31
0.0
  0
LINE
  8
0
 62
0
 10
88.88125
 20
-7.75
 30
0.0
 11
92.18125
 21
-7.75
 31
0.0
  0
LINE
  8
0
 62
0
 10
68.28125
 20
-7.75
 30
0.0
 11
68.28125
 21
-6.77
 31
0.0
  0
LINE
  8
0
 62
0
 10
92.18125
 20
-7.75
 30
0.0
 11
92.18125
 21
-6.77
 31
0.0
  0
LINE
  8
0
 62
0
 10
64.98125
 20
-7.75
 30
0.0
 11
68.28125
 21
-7.75
 31
0.0
  0
LINE
  8
0
 62
0
 10
92.18125
 20
-6.77
 30
0.0
 11
93.80625
 21
-6.77
 31
0.0
  0
LINE
  8
0
 62
0
 10
64.98125
 20
-6.77
 30
0.0
 11
64.98125
 21
-7.75
 31
0.0
  0
LINE
  8
0
 62
0
 10
93.80625
 20
-6.77
 30
0.0
 11
93.80625
 21
-0.5
 31
0.0
  0
LINE
  8
0
 62
0
 10
63.35625
 20
-6.77
 30
0.0
 11
64.98125
 21
-6.77
 31
0.0
  0
LINE
  8
0
 62
0
 10
93.80625
 20
-0.5
 30
0.0
 11
94.68125
 21
-0.5
 31
0.0
  0
LINE
  8
0
 62
0
 10
63.35625
 20
-0.5
 30
0.0
 11
63.35625
 21
-6.77
 31
0.0
  0
LINE
  8
0
 62
0
 10
94.68125
 20
-0.5
 30
0.0
 11
94.68125
 21
2.3
 31
0.0
  0
LINE
  8
0
 62
0
 10
62.48125
 20
-0.5
 30
0.0
 11
63.35625
 21
-0.5
 31
0.0
  0
LINE
  8
0
 62
0
 10
94.68125
 20
2.3
 30
0.0
 11
93.80625
 21
2.3
 31
0.0
  0
LINE
  8
0
 62
0
 10
62.48125
 20
2.3
 30
0.0
 11
62.48125
 21
-0.5
 31
0.0
  0
LINE
  8
0
 62
0
 10
93.80625
 20
2.3
 30
0.0
 11
93.80625
 21
5.53
 31
0.0
  0
LINE
  8
0
 62
0
 10
63.35625
 20
2.3
 30
0.0
 11
62.48125
 21
2.3
 31
0.0
  0
LINE
  8
0
 62
0
 10
93.80625
 20
5.53
 30
0.0
 11
92.18125
 21
5.53
 31
0.0
  0
LINE
  8
0
 62
0
 10
63.35625
 20
5.53
 30
0.0
 11
63.35625
 21
2.3
 31
0.0
  0
LINE
  8
0
 62
0
 10
92.18125
 20
5.53
 30
0.0
 11
92.18125
 21
6.4
 31
0.0
  0
LINE
  8
0
 62
0
 10
64.98125
 20
5.53
 30
0.0
 11
63.35625
 21
5.53
 31
0.0
  0
LINE
  8
0
 62
0
 10
92.18125
 20
6.4
 30
0.0
 11
88.88125
 21
6.4
 31
0.0
  0
LINE
  8
0
 62
0
 10
64.98125
 20
6.4
 30
0.0
 11
64.98125
 21
5.53
 31
0.0
  0
LINE
  8
0
 62
0
 10
88.88125
 20
6.4
 30
0.0
 11
88.88125
 21
5.53
 31
0.0
  0
LINE
  8
0
 62
0
 10
68.28125
 20
6.4
 30
0.0
 11
64.98125
 21
6.4
 31
0.0
  0
LINE
  8
0
 62
0
 10
88.88125
 20
5.53
 30
0.0
 11
87.15625
 21
5.53
 31
0.0
  0
LINE
  8
0
 62
0
 10
68.28125
 20
5.53
 30
0.0
 11
68.28125
 21
6.4
 31
0.0
  0
LINE
  8
0
 62
0
 10
87.15625
 20
5.53
 30
0.0
 11
87.15625
 21
4.73
 31
0.0
  0
LINE
  8
0
 62
0
 10
70.00625
 20
5.53
 30
0.0
 11
68.28125
 21
5.53
 31
0.0
  0
LINE
  8
0
 62
0
 10
87.15625
 20
4.73
 30
0.0
 11
86.38125
 21
4.73
 31
0.0
  0
LINE
  8
0
 62
0
 10
70.00625
 20
4.73
 30
0.0
 11
70.00625
 21
5.53
 31
0.0
  0
LINE
  8
0
 62
0
 10
86.38125
 20
4.73
 30
0.0
 11
86.38125
 21
6.4
 31
0.0
  0
LINE
  8
0
 62
0
 10
70.78125
 20
4.73
 30
0.0
 11
70.00625
 21
4.73
 31
0.0
  0
LINE
  8
0
 62
0
 10
86.38125
 20
6.4
 30
0.0
 11
85.58125
 21
6.4
 31
0.0
  0
LINE
  8
0
 62
0
 10
70.78125
 20
6.4
 30
0.0
 11
70.78125
 21
4.73
 31
0.0
  0
LINE
  8
0
 62
0
 10
85.58125
 20
6.4
 30
0.0
 11
85.58125
 21
7.0
 31
0.0
  0
LINE
  8
0
 62
0
 10
71.58125
 20
6.4
 30
0.0
 11
70.78125
 21
6.4
 31
0.0
  0
LINE
  8
0
 62
0
 10
85.58125
 20
7.0
 30
0.0
 11
71.58125
 21
7.0
 31
0.0
  0
LINE
  8
0
 62
0
 10
71.58125
 20
7.0
 30
0.0
 11
71.58125
 21
6.4
 31
0.0
  0
LINE
  8
0
 62
0
 10
60.1875
 20
31.7
 30
0.0
 11
60.1875
 21
44.5
 31
0.0
  0
LINE
  8
0
 62
0
 10
59.3875
 20
31.7
 30
0.0
 11
60.1875
 21
31.7
 31
0.0
  0
LINE
  8
0
 62
0
 10
60.1875
 20
44.5
 30
0.0
 11
59.3875
 21
44.5
 31
0.0
  0
LINE
  8
0
 62
0
 10
59.3875
 20
31.1
 30
0.0
 11
59.3875
 21
31.7
 31
0.0
  0
LINE
  8
0
 62
0
 10
59.3875
 20
44.5
 30
0.0
 11
59.3875
 21
45.1
 31
0.0
  0
LINE
  8
0
 62
0
 10
45.3875
 20
31.1
 30
0.0
 11
59.3875
 21
31.1
 31
0.0
  0
LINE
  8
0
 62
0
 10
59.3875
 20
45.1
 30
0.0
 11
45.3875
 21
45.1
 31
0.0
  0
LINE
  8
0
 62
0
 10
45.3875
 20
31.7
 30
0.0
 11
45.3875
 21
31.1
 31
0.0
  0
LINE
  8
0
 62
0
 10
45.3875
 20
45.1
 30
0.0
 11
45.3875
 21
44.5
 31
0.0
  0
LINE
  8
0
 62
0
 10
44.5875
 20
31.7
 30
0.0
 11
45.3875
 21
31.7
 31
0.0
  0
LINE
  8
0
 62
0
 10
45.3875
 20
44.5
 30
0.0
 11
44.5875
 21
44.5
 31
0.0
  0
LINE
  8
0
 62
0
 10
44.5875
 20
44.5
 30
0.0
 11
44.5875
 21
31.7
 31
0.0
  0
LINE
  8
0
 62
0
 10
-21.575
 20
7.0
 30
0.0
 11
-35.575
 21
7.0
 31
0.0
  0
LINE
  8
0
 62
0
 10
-21.575
 20
6.4
 30
0.0
 11
-21.575
 21
7.0
 31
0.0
  0
LINE
  8
0
 62
0
 10
-35.575
 20
7.0
 30
0.0
 11
-35.575
 21
6.4
 31
0.0
  0
LINE
  8
0
 62
0
 10
-20.775
 20
6.4
 30
0.0
 11
-21.575
 21
6.4
 31
0.0
  0
LINE
  8
0
 62
0
 10
-35.575
 20
6.4
 30
0.0
 11
-36.375
 21
6.4
 31
0.0
  0
LINE
  8
0
 62
0
 10
-20.775
 20
-6.4
 30
0.0
 11
-20.775
 21
6.4
 31
0.0
  0
LINE
  8
0
 62
0
 10
-36.375
 20
6.4
 30
0.0
 11
-36.375
 21
-6.4
 31
0.0
  0
LINE
  8
0
 62
0
 10
-21.575
 20
-6.4
 30
0.0
 11
-20.775
 21
-6.4
 31
0.0
  0
LINE
  8
0
 62
0
 10
-36.375
 20
-6.4
 30
0.0
 11
-35.575
 21
-6.4
 31
0.0
  0
LINE
  8
0
 62
0
 10
-21.575
 20
-7.0
 30
0.0
 11
-21.575
 21
-6.4
 31
0.0
  0
LINE
  8
0
 62
0
 10
-35.575
 20
-6.4
 30
0.0
 11
-35.575
 21
-7.0
 31
0.0
  0
LINE
  8
0
 62
0
 10
-35.575
 20
-7.0
 30
0.0
 11
-21.575
 21
-7.0
 31
0.0
  0
LINE
  8
0
 62
0
 10
68.9125
 20
12.05
 30
0.0
 11
68.9125
 21
12.65
 31
0.0
  0
LINE
  8
0
 62
0
 10
54.9125
 20
12.05
 30
0.0
 11
68.9125
 21
12.05
 31
0.0
  0
LINE
  8
0
 62
0
 10
68.9125
 20
12.65
 30
0.0
 11
69.7125
 21
12.65
 31
0.0
  0
LINE
  8
0
 62
0
 10
54.9125
 20
12.65
 30
0.0
 11
54.9125
 21
12.05
 31
0.0
  0
LINE
  8
0
 62
0
 10
69.7125
 20
12.65
 30
0.0
 11
69.7125
 21
25.45
 31
0.0
  0
LINE
  8
0
 62
0
 10
54.1125
 20
12.65
 30
0.0
 11
54.9125
 21
12.65
 31
0.0
  0
LINE
  8
0
 62
0
 10
69.7125
 20
25.45
 30
0.0
 11
68.9125
 21
25.45
 31
0.0
  0
LINE
  8
0
 62
0
 10
54.1125
 20
25.45
 30
0.0
 11
54.1125
 21
12.65
 31
0.0
  0
LINE
  8
0
 62
0
 10
68.9125
 20
25.45
 30
0.0
 11
68.9125
 21
26.05
 31
0.0
  0
LINE
  8
0
 62
0
 10
54.9125
 20
25.45
 30
0.0
 11
54.1125
 21
25.45
 31
0.0
  0
LINE
  8
0
 62
0
 10
68.9125
 20
26.05
 30
0.0
 11
54.9125
 21
26.05
 31
0.0
  0
LINE
  8
0
 62
0
 10
54.9125
 20
26.05
 30
0.0
 11
54.9125
 21
25.45
 31
0.0
  0
LINE
  8
0
 62
0
 10
-31.1
 20
-12.05
 30
0.0
 11
-45.1
 21
-12.05
 31
0.0
  0
LINE
  8
0
 62
0
 10
-31.1
 20
-12.65
 30
0.0
 11
-31.1
 21
-12.05
 31
0.0
  0
LINE
  8
0
 62
0
 10
-45.1
 20
-12.05
 30
0.0
 11
-45.1
 21
-12.65
 31
0.0
  0
LINE
  8
0
 62
0
 10
-30.3
 20
-12.65
 30
0.0
 11
-31.1
 21
-12.65
 31
0.0
  0
LINE
  8
0
 62
0
 10
-45.1
 20
-12.65
 30
0.0
 11
-45.9
 21
-12.65
 31
0.0
  0
LINE
  8
0
 62
0
 10
-30.3
 20
-25.45
 30
0.0
 11
-30.3
 21
-12.65
 31
0.0
  0
LINE
  8
0
 62
0
 10
-45.9
 20
-12.65
 30
0.0
 11
-45.9
 21
-25.45
 31
0.0
  0
LINE
  8
0
 62
0
 10
-31.1
 20
-25.45
 30
0.0
 11
-30.3
 21
-25.45
 31
0.0
  0
LINE
  8
0
 62
0
 10
-45.9
 20
-25.45
 30
0.0
 11
-45.1
 21
-25.45
 31
0.0
  0
LINE
  8
0
 62
0
 10
-31.1
 20
-26.05
 30
0.0
 11
-31.1
 21
-25.45
 31
0.0
  0
LINE
  8
0
 62
0
 10
-45.1
 20
-25.45
 30
0.0
 11
-45.1
 21
-26.05
 31
0.0
  0
LINE
  8
0
 62
0
 10
-45.1
 20
-26.05
 30
0.0
 11
-31.1
 21
-26.05
 31
0.0
  0
LINE
  8
0
 62
0
 10
95.10625
 20
-44.5
 30
0.0
 11
95.90625
 21
-44.5
 31
0.0
  0
LINE
  8
0
 62
0
 10
95.90625
 20
-44.5
 30
0.0
 11
95.90625
 21
-31.7
 31
0.0
  0
LINE
  8
0
 62
0
 10
95.90625
 20
-31.7
 30
0.0
 11
95.10625
 21
-31.7
 31
0.0
  0
LINE
  8
0
 62
0
 10
95.10625
 20
-31.7
 30
0.0
 11
95.10625
 21
-31.1
 31
0.0
  0
LINE
  8
0
 62
0
 10
95.10625
 20
-31.1
 30
0.0
 11
81.10625
 21
-31.1
 31
0.0
  0
LINE
  8
0
 62
0
 10
81.10625
 20
-31.1
 30
0.0
 11
81.10625
 21
-31.7
 31
0.0
  0
LINE
  8
0
 62
0
 10
81.10625
 20
-31.7
 30
0.0
 11
80.30625
 21
-31.7
 31
0.0
  0
LINE
  8
0
 62
0
 10
80.30625
 20
-31.7
 30
0.0
 11
80.30625
 21
-44.5
 31
0.0
  0
LINE
  8
0
 62
0
 10
80.30625
 20
-44.5
 30
0.0
 11
81.10625
 21
-44.5
 31
0.0
  0
LINE
  8
0
 62
0
 10
81.10625
 20
-44.5
 30
0.0
 11
81.10625
 21
-45.1
 31
0.0
  0
LINE
  8
0
 62
0
 10
81.10625
 20
-45.1
 30
0.0
 11
95.10625
 21
-45.1
 31
0.0
  0
LINE
  8
0
 62
0
 10
95.10625
 20
-45.1
 30
0.0
 11
95.10625
 21
-44.5
 31
0.0
  0
CIRCLE
  8
0
 62
0
 10
103.0125
 20
-50.625
 30
0.0
 40
1.5
  0
LINE
  8
0
 62
0
 10
-54.9125
 20
31.1
 30
0.0
 11
-54.9125
 21
31.7
 31
0.0
  0
LINE
  8
0
 62
0
 10
-68.9125
 20
31.1
 30
0.0
 11
-54.9125
 21
31.1
 31
0.0
  0
LINE
  8
0
 62
0
 10
-54.9125
 20
31.7
 30
0.0
 11
-54.1125
 21
31.7
 31
0.0
  0
LINE
  8
0
 62
0
 10
-68.9125
 20
31.7
 30
0.0
 11
-68.9125
 21
31.1
 31
0.0
  0
LINE
  8
0
 62
0
 10
-54.1125
 20
31.7
 30
0.0
 11
-54.1125
 21
44.5
 31
0.0
  0
LINE
  8
0
 62
0
 10
-69.7125
 20
31.7
 30
0.0
 11
-68.9125
 21
31.7
 31
0.0
  0
LINE
  8
0
 62
0
 10
-54.1125
 20
44.5
 30
0.0
 11
-54.9125
 21
44.5
 31
0.0
  0
LINE
  8
0
 62
0
 10
-69.7125
 20
44.5
 30
0.0
 11
-69.7125
 21
31.7
 31
0.0
  0
LINE
  8
0
 62
0
 10
-54.9125
 20
44.5
 30
0.0
 11
-54.9125
 21
45.1
 31
0.0
  0
LINE
  8
0
 62
0
 10
-68.9125
 20
44.5
 30
0.0
 11
-69.7125
 21
44.5
 31
0.0
  0
LINE
  8
0
 62
0
 10
-54.9125
 20
45.1
 30
0.0
 11
-68.9125
 21
45.1
 31
0.0
  0
LINE
  8
0
 62
0
 10
-68.9125
 20
45.1
 30
0.0
 11
-68.9125
 21
44.5
 31
0.0
  0
LINE
  8
0
 62
0
 10
35.8625
 20
12.05
 30
0.0
 11
49.8625
 21
12.05
 31
0.0
  0
LINE
  8
0
 62
0
 10
35.8625
 20
12.65
 30
0.0
 11
35.8625
 21
12.05
 31
0.0
  0
LINE
  8
0
 62
0
 10
49.8625
 20
12.05
 30
0.0
 11
49.8625
 21
12.65
 31
0.0
  0
LINE
  8
0
 62
0
 10
35.0625
 20
12.65
 30
0.0
 11
35.8625
 21
12.65
 31
0.0
  0
LINE
  8
0
 62
0
 10
49.8625
 20
12.65
 30
0.0
 11
50.6625
 21
12.65
 31
0.0
  0
LINE
  8
0
 62
0
 10
35.0625
 20
25.45
 30
0.0
 11
35.0625
 21
12.65
 31
0.0
  0
LINE
  8
0
 62
0
 10
50.6625
 20
12.65
 30
0.0
 11
50.6625
 21
25.45
 31
0.0
  0
LINE
  8
0
 62
0
 10
35.8625
 20
25.45
 30
0.0
 11
35.0625
 21
25.45
 31
0.0
  0
LINE
  8
0
 62
0
 10
50.6625
 20
25.45
 30
0.0
 11
49.8625
 21
25.45
 31
0.0
  0
LINE
  8
0
 62
0
 10
35.8625
 20
26.05
 30
0.0
 11
35.8625
 21
25.45
 31
0.0
  0
LINE
  8
0
 62
0
 10
49.8625
 20
25.45
 30
0.0
 11
49.8625
 21
26.05
 31
0.0
  0
LINE
  8
0
 62
0
 10
49.8625
 20
26.05
 30
0.0
 11
35.8625
 21
26.05
 31
0.0
  0
ENDBLK
  0
ENDSEC
  0
SECTION
  2
ENTITIES
  0
INSERT
  2
SHAPE
  8
0
 10
0.0
 20
0.0
 30
0.0
  0
ENDSEC
  0
EOF
